<svg width="293" height="283" viewBox="0 0 293 283" fill="none" xmlns="http://www.w3.org/2000/svg">
<mask id="path-1-outside-1" maskUnits="userSpaceOnUse" x="0.85376" y="0.663574" width="293" height="282" fill="black">
<rect fill="white" x="0.85376" y="0.663574" width="293" height="282"/>
<path fill-rule="evenodd" clip-rule="evenodd" d="M268.026 10.6003C275.296 10.2368 282.591 9.87204 289.654 11.1278C290.501 11.2336 290.348 11.6554 289.901 12.0265C290.173 12.0098 290.446 11.994 290.719 11.9791C291.57 11.9791 292.421 12.6177 291.357 13.2563C288.539 15.2815 285.576 16.9788 282.497 18.4689C281.705 19.2586 280.928 20.0668 280.18 20.8447C278.9 22.176 277.706 23.4182 276.669 24.3252C272.412 28.1567 267.942 31.9882 263.259 35.394C253.468 42.6313 243.889 49.8686 234.31 57.3188C215.578 72.0063 196.208 86.268 175.56 97.9755C171.594 100.242 167.582 102.343 163.584 104.436C155.566 108.634 147.611 112.8 140.225 118.197C139.296 118.908 138.198 119.927 136.997 121.042C133.521 124.271 129.176 128.305 125.537 127.989C120.711 127.631 117.686 118.116 115.958 112.682C115.628 111.645 115.346 110.757 115.107 110.109C113.951 107.066 112.934 103.78 111.897 100.429C110.769 96.7842 109.617 93.0624 108.237 89.495C102.131 93.0064 95.3804 95.1638 88.627 97.3223C83.8393 98.8524 79.0501 100.383 74.4882 102.397C73.5533 103.138 72.6184 103.851 71.6834 104.361C71.2577 104.574 69.1291 105.213 69.3419 104.149C70.0533 98.5594 71.9289 93.31 74.0888 88.1453C74.1382 87.9453 74.1878 87.7453 74.2378 87.5453C74.2747 87.361 74.3882 87.1958 74.5495 87.0542C75.1059 85.7481 75.6766 84.4463 76.2472 83.1446L76.2484 83.1418C76.4648 82.6483 76.6811 82.1548 76.8967 81.661C77.4125 80.2005 77.9473 78.7417 78.4809 77.2862L78.4819 77.2836C79.9989 73.146 81.5065 69.034 82.5394 64.9818C83.178 62.4274 83.7634 59.8198 84.3488 57.2122C84.9341 54.6047 85.5195 51.9972 86.1581 49.4429C86.2559 49.0025 86.3313 48.4272 86.4152 47.7867C86.6963 45.6408 87.0732 42.7634 88.7124 41.7798C88.9271 41.6367 89.1298 41.5296 89.3245 41.4496C89.4372 41.3157 89.5578 41.1763 89.6874 41.0294C89.1271 41.5739 87.6589 41.6955 87.4509 41.2497C85.3144 40.6634 83.6942 39.5548 82.0133 38.4046C81.0402 37.7386 80.0466 37.0588 78.9208 36.4583C77.9507 35.8967 76.9928 35.3595 76.0472 34.8293C73.0506 33.1488 70.1769 31.5373 67.4263 29.4339C64.6419 27.4291 61.9158 25.4098 59.206 23.4026C51.558 17.7374 44.04 12.1686 35.7098 7.29624C34.8584 6.87052 35.7098 6.44479 36.1355 6.23193C40.586 4.00669 46.413 3.29557 51.624 2.65963C52.8932 2.50474 54.1258 2.35431 55.2931 2.18755C62.3485 1.38581 69.6454 1.67118 76.82 1.95177C79.1696 2.04366 81.5061 2.13504 83.8166 2.18755C102.067 2.51938 120.189 3.75647 138.282 4.99162C143.401 5.34111 148.518 5.69044 153.635 6.01907C177.476 7.72197 201.316 8.99914 225.157 9.85059C228.502 9.97222 231.847 10.1286 235.192 10.285C243.554 10.676 251.917 11.0669 260.279 10.9149C262.851 10.859 265.437 10.7297 268.026 10.6003ZM77.6436 98.4012C78.6396 97.9032 79.7651 98.3115 79.4046 98.9192C82.1263 97.9337 84.8916 97.0442 87.6544 96.1556C94.1858 94.0549 100.703 91.9589 106.593 88.6096C106.884 88.4639 107.374 88.4179 107.826 88.4545C106.446 85.0368 104.834 81.7842 102.805 78.905C99.1013 80.5274 95.5471 82.6087 92.1182 85.6294C90.5217 87.1195 88.7656 88.3966 87.0095 89.6738C85.2534 90.951 83.4973 92.2281 81.9008 93.7182C81.3761 94.1846 80.6598 95.0022 79.835 95.9438C79.1486 96.7274 78.387 97.5967 77.5982 98.4208L77.6436 98.4012ZM76.4093 96.3026C76.8006 94.1704 78.8466 86.7235 81.1641 78.4536C82.2324 75.9057 83.2258 73.3411 84.0294 70.7292C85.229 66.9805 86.1117 63.0206 86.9751 59.147C87.3374 57.5217 87.6963 55.9117 88.0738 54.3388C88.401 52.9645 88.8087 51.5499 89.2227 50.1136C89.9561 47.5689 90.7092 44.9562 91.069 42.3785C91.1328 42.3163 91.1987 42.2585 91.2668 42.2056C92.153 41.467 95.9091 41.446 98.5522 41.4311C99.7181 41.4246 100.668 41.4193 101.058 41.3541C106.189 40.4486 111.107 39.0082 116.037 37.5637C118.061 36.9709 120.088 36.3771 122.132 35.8197C157.467 25.8152 194.079 21.9837 230.691 18.365C238.993 17.5136 247.295 17.0346 255.596 16.5557C263.898 16.0767 272.2 15.5978 280.501 14.7464L285.371 14.0507C284.779 14.5533 284.228 15.1086 283.674 15.6666C283.196 16.1491 282.715 16.6336 282.204 17.0879C282.014 17.2776 281.823 17.466 281.632 17.653C280.077 18.2989 278.402 18.8872 277.001 19.3792C275.988 19.735 275.118 20.0405 274.541 20.2808C271.274 21.5298 267.921 22.6054 264.559 23.6837C260.473 24.9943 256.374 26.3089 252.403 27.9438C241.744 32.1264 230.829 35.4538 219.874 38.7933C213.546 40.7224 207.204 42.6556 200.891 44.7599C193.121 47.4207 185.299 50.0815 177.476 52.7422C169.653 55.403 161.831 58.0638 154.061 60.7246C149.003 62.531 143.877 64.0649 138.76 65.5961C134.832 66.7713 130.909 67.9451 127.028 69.239C123.822 70.3074 120.505 71.1896 117.186 72.0725C112.673 73.2729 108.154 74.4748 103.905 76.1476L103.825 76.0507C103.4 75.4121 101.484 75.8378 101.271 76.4764C101.165 76.5828 101.111 76.6892 101.058 76.7957C101.005 76.9021 100.952 77.0085 100.845 77.115C100.741 77.2882 100.728 77.4277 100.78 77.536C96.8706 79.4981 93.9577 81.8716 90.5401 84.6563C89.8164 85.2461 89.07 85.8542 88.2867 86.4809C86.3136 88.1818 84.3188 89.7957 82.337 91.3991C80.3364 93.0177 78.3477 94.6268 76.4093 96.3026ZM92.1182 41.1413C91.7901 41.1959 91.4902 41.2085 91.2038 41.2113C91.2316 40.9034 91.2528 40.5962 91.2667 40.2899C91.2667 40.077 91.2667 39.8642 91.0539 39.8642C90.9474 39.8642 90.841 39.811 90.7346 39.7577C90.6282 39.7045 90.5217 39.6513 90.4153 39.6513C90.016 39.5182 89.4501 39.5516 88.9781 39.6994C85.2893 38.555 79.9199 35.0188 76.289 32.6274C75.6958 32.2368 75.149 31.8766 74.6636 31.5625C69.6809 28.4253 65.1782 24.6481 60.7394 20.9244L60.734 20.9199C60.0546 20.35 59.3768 19.7814 58.6989 19.2165C54.6545 16.0236 50.3973 13.2564 46.14 10.4892C45.5724 10.128 44.8672 9.79178 44.17 9.45939C41.991 8.42059 39.8896 7.41882 42.3085 5.80621C42.8667 5.38761 44.065 5.33487 45.1242 5.28826C45.6809 5.26376 46.1991 5.24095 46.5658 5.16762C67.005 1.48185 88.2354 3.07047 109.219 4.64064C114.896 5.06545 120.556 5.48892 126.176 5.80621C139.374 6.44479 152.518 7.29624 165.662 8.14769C178.806 8.99914 191.951 9.85059 205.148 10.4892C213.431 10.9989 221.791 11.2798 230.135 11.5601C235.729 11.7481 241.316 11.9358 246.869 12.1921C252.177 12.4409 257.615 12.1726 263.068 11.9036C270.934 11.5155 278.832 11.1258 286.424 12.2835C282.046 12.6588 277.665 13.2139 273.27 13.7709C267.343 14.5217 261.39 15.276 255.383 15.5978C244.102 16.0235 232.82 16.875 221.325 18.1521C197.059 20.4936 173.006 23.2608 149.165 28.1567C137.032 30.711 125.325 33.9039 113.404 37.3097C107.478 39.0528 101.98 39.7967 96.092 40.5934L96.0842 40.5944L96.0767 40.5954C94.7791 40.771 93.4625 40.9492 92.1182 41.1413ZM268.794 23.8994C272.322 22.6925 275.769 21.445 279.1 20.0157C277.127 21.7831 275.096 23.4573 273.072 25.1255L273.07 25.127L273.068 25.1288C271.849 26.1339 270.632 27.1368 269.432 28.1567C264.854 31.9925 260.06 35.5406 255.259 39.0937C251.802 41.6527 248.339 44.215 244.953 46.8886C243.064 48.3577 241.177 49.8288 239.291 51.2998L239.289 51.3014L239.281 51.3079C222.036 64.7538 204.811 78.1847 186.203 89.8867C179.039 94.4156 171.684 98.4349 164.36 102.437C152.75 108.781 141.218 115.083 130.646 123.306C130.458 123.462 130.253 123.646 130.032 123.844C128.748 124.989 126.959 126.587 125.325 125.86C123.91 125.33 122.348 121.125 121.372 118.497C121.173 117.963 120.998 117.493 120.854 117.133C118.726 112.237 116.81 107.129 115.107 102.02C114.545 100.374 114.006 98.6835 113.461 96.9743C111.356 90.371 109.163 83.4947 105.238 77.9085C108.424 76.6864 111.721 75.7178 115.142 74.7125C117.348 74.0645 119.606 73.4011 121.919 72.6448C129.6 70.0844 137.355 67.7071 145.107 65.3306C156.044 61.9776 166.976 58.6261 177.689 54.7644C192.848 49.3505 208.119 44.4986 223.421 39.6369C229.177 37.8084 234.936 35.9785 240.696 34.1168C244.859 32.6977 249.021 31.1104 253.184 29.5232C258.387 27.5391 263.591 25.555 268.794 23.8994Z"/>
<path fill-rule="evenodd" clip-rule="evenodd" d="M61.0403 119.9C61.0403 119.9 61.2532 120.113 61.2532 120.326C61.5541 120.777 60.2598 121.441 59.3246 121.191C46.0872 134.641 34.2083 152.29 28.2595 170.136C28.163 170.418 28.0644 170.705 27.9642 170.997C26.1701 176.22 23.8734 182.907 23.982 188.98C26.9061 183.734 30.6304 178.916 36.3483 177.586C43.5856 176.096 47.63 181.417 47.63 188.229C47.63 195.466 43.1599 204.406 35.284 205.258C29.3335 205.868 24.8047 201.885 22.6384 196.836L21.448 199.085C16.765 208.664 13.9978 218.668 11.2306 228.886C10.7744 230.669 10.302 232.452 9.8292 234.237C7.87542 241.614 5.91452 249.017 5.05758 256.558C4.46979 261.26 5.24542 265.573 6.02192 269.891C6.65143 273.391 7.28151 276.894 7.1862 280.611C7.1862 281.675 4.419 282.101 4.419 281.037C4.52469 277.76 3.84316 274.589 3.15618 271.392C2.45963 268.15 1.75748 264.883 1.86465 261.454C1.86465 254.509 3.68496 247.565 5.42877 240.913C5.66271 240.02 5.89528 239.133 6.12189 238.252L6.28403 237.603C9.63652 224.19 13.0348 210.593 19.3193 198.233C19.8573 197.187 20.3994 196.07 20.9593 194.916C21.1715 194.479 21.3862 194.036 21.6042 193.591C21.3888 192.588 21.2638 191.573 21.2351 190.57C20.8094 178.437 26.9824 164.388 32.9425 153.958C39.5196 142.077 48.6342 129.773 58.3895 120.208C58.3332 120.126 58.2731 120.013 58.2731 119.9C58.4953 119.845 58.7175 119.804 58.9397 119.773C59.6625 119.357 60.6972 119.214 61.0403 119.9ZM24.5284 193.266C24.9655 194.972 25.6859 196.576 26.7695 198.021C32.0911 205.045 40.6055 202.491 43.5856 194.828C44.8628 191.635 45.2885 188.016 44.4371 184.61C44.2242 183.12 43.5856 181.843 42.7342 180.779C40.6055 181.205 38.5301 181.63 36.4547 182.056C34.3793 182.482 32.3039 182.907 30.1753 183.333C29.2613 184.095 28.5653 185.511 27.9313 186.8C27.6794 187.313 27.4373 187.805 27.1952 188.229L24.5284 193.266Z"/>
</mask>
<path fill-rule="evenodd" clip-rule="evenodd" d="M268.026 10.6003C275.296 10.2368 282.591 9.87204 289.654 11.1278C290.501 11.2336 290.348 11.6554 289.901 12.0265C290.173 12.0098 290.446 11.994 290.719 11.9791C291.57 11.9791 292.421 12.6177 291.357 13.2563C288.539 15.2815 285.576 16.9788 282.497 18.4689C281.705 19.2586 280.928 20.0668 280.18 20.8447C278.9 22.176 277.706 23.4182 276.669 24.3252C272.412 28.1567 267.942 31.9882 263.259 35.394C253.468 42.6313 243.889 49.8686 234.31 57.3188C215.578 72.0063 196.208 86.268 175.56 97.9755C171.594 100.242 167.582 102.343 163.584 104.436C155.566 108.634 147.611 112.8 140.225 118.197C139.296 118.908 138.198 119.927 136.997 121.042C133.521 124.271 129.176 128.305 125.537 127.989C120.711 127.631 117.686 118.116 115.958 112.682C115.628 111.645 115.346 110.757 115.107 110.109C113.951 107.066 112.934 103.78 111.897 100.429C110.769 96.7842 109.617 93.0624 108.237 89.495C102.131 93.0064 95.3804 95.1638 88.627 97.3223C83.8393 98.8524 79.0501 100.383 74.4882 102.397C73.5533 103.138 72.6184 103.851 71.6834 104.361C71.2577 104.574 69.1291 105.213 69.3419 104.149C70.0533 98.5594 71.9289 93.31 74.0888 88.1453C74.1382 87.9453 74.1878 87.7453 74.2378 87.5453C74.2747 87.361 74.3882 87.1958 74.5495 87.0542C75.1059 85.7481 75.6766 84.4463 76.2472 83.1446L76.2484 83.1418C76.4648 82.6483 76.6811 82.1548 76.8967 81.661C77.4125 80.2005 77.9473 78.7417 78.4809 77.2862L78.4819 77.2836C79.9989 73.146 81.5065 69.034 82.5394 64.9818C83.178 62.4274 83.7634 59.8198 84.3488 57.2122C84.9341 54.6047 85.5195 51.9972 86.1581 49.4429C86.2559 49.0025 86.3313 48.4272 86.4152 47.7867C86.6963 45.6408 87.0732 42.7634 88.7124 41.7798C88.9271 41.6367 89.1298 41.5296 89.3245 41.4496C89.4372 41.3157 89.5578 41.1763 89.6874 41.0294C89.1271 41.5739 87.6589 41.6955 87.4509 41.2497C85.3144 40.6634 83.6942 39.5548 82.0133 38.4046C81.0402 37.7386 80.0466 37.0588 78.9208 36.4583C77.9507 35.8967 76.9928 35.3595 76.0472 34.8293C73.0506 33.1488 70.1769 31.5373 67.4263 29.4339C64.6419 27.4291 61.9158 25.4098 59.206 23.4026C51.558 17.7374 44.04 12.1686 35.7098 7.29624C34.8584 6.87052 35.7098 6.44479 36.1355 6.23193C40.586 4.00669 46.413 3.29557 51.624 2.65963C52.8932 2.50474 54.1258 2.35431 55.2931 2.18755C62.3485 1.38581 69.6454 1.67118 76.82 1.95177C79.1696 2.04366 81.5061 2.13504 83.8166 2.18755C102.067 2.51938 120.189 3.75647 138.282 4.99162C143.401 5.34111 148.518 5.69044 153.635 6.01907C177.476 7.72197 201.316 8.99914 225.157 9.85059C228.502 9.97222 231.847 10.1286 235.192 10.285C243.554 10.676 251.917 11.0669 260.279 10.9149C262.851 10.859 265.437 10.7297 268.026 10.6003ZM77.6436 98.4012C78.6396 97.9032 79.7651 98.3115 79.4046 98.9192C82.1263 97.9337 84.8916 97.0442 87.6544 96.1556C94.1858 94.0549 100.703 91.9589 106.593 88.6096C106.884 88.4639 107.374 88.4179 107.826 88.4545C106.446 85.0368 104.834 81.7842 102.805 78.905C99.1013 80.5274 95.5471 82.6087 92.1182 85.6294C90.5217 87.1195 88.7656 88.3966 87.0095 89.6738C85.2534 90.951 83.4973 92.2281 81.9008 93.7182C81.3761 94.1846 80.6598 95.0022 79.835 95.9438C79.1486 96.7274 78.387 97.5967 77.5982 98.4208L77.6436 98.4012ZM76.4093 96.3026C76.8006 94.1704 78.8466 86.7235 81.1641 78.4536C82.2324 75.9057 83.2258 73.3411 84.0294 70.7292C85.229 66.9805 86.1117 63.0206 86.9751 59.147C87.3374 57.5217 87.6963 55.9117 88.0738 54.3388C88.401 52.9645 88.8087 51.5499 89.2227 50.1136C89.9561 47.5689 90.7092 44.9562 91.069 42.3785C91.1328 42.3163 91.1987 42.2585 91.2668 42.2056C92.153 41.467 95.9091 41.446 98.5522 41.4311C99.7181 41.4246 100.668 41.4193 101.058 41.3541C106.189 40.4486 111.107 39.0082 116.037 37.5637C118.061 36.9709 120.088 36.3771 122.132 35.8197C157.467 25.8152 194.079 21.9837 230.691 18.365C238.993 17.5136 247.295 17.0346 255.596 16.5557C263.898 16.0767 272.2 15.5978 280.501 14.7464L285.371 14.0507C284.779 14.5533 284.228 15.1086 283.674 15.6666C283.196 16.1491 282.715 16.6336 282.204 17.0879C282.014 17.2776 281.823 17.466 281.632 17.653C280.077 18.2989 278.402 18.8872 277.001 19.3792C275.988 19.735 275.118 20.0405 274.541 20.2808C271.274 21.5298 267.921 22.6054 264.559 23.6837C260.473 24.9943 256.374 26.3089 252.403 27.9438C241.744 32.1264 230.829 35.4538 219.874 38.7933C213.546 40.7224 207.204 42.6556 200.891 44.7599C193.121 47.4207 185.299 50.0815 177.476 52.7422C169.653 55.403 161.831 58.0638 154.061 60.7246C149.003 62.531 143.877 64.0649 138.76 65.5961C134.832 66.7713 130.909 67.9451 127.028 69.239C123.822 70.3074 120.505 71.1896 117.186 72.0725C112.673 73.2729 108.154 74.4748 103.905 76.1476L103.825 76.0507C103.4 75.4121 101.484 75.8378 101.271 76.4764C101.165 76.5828 101.111 76.6892 101.058 76.7957C101.005 76.9021 100.952 77.0085 100.845 77.115C100.741 77.2882 100.728 77.4277 100.78 77.536C96.8706 79.4981 93.9577 81.8716 90.5401 84.6563C89.8164 85.2461 89.07 85.8542 88.2867 86.4809C86.3136 88.1818 84.3188 89.7957 82.337 91.3991C80.3364 93.0177 78.3477 94.6268 76.4093 96.3026ZM92.1182 41.1413C91.7901 41.1959 91.4902 41.2085 91.2038 41.2113C91.2316 40.9034 91.2528 40.5962 91.2667 40.2899C91.2667 40.077 91.2667 39.8642 91.0539 39.8642C90.9474 39.8642 90.841 39.811 90.7346 39.7577C90.6282 39.7045 90.5217 39.6513 90.4153 39.6513C90.016 39.5182 89.4501 39.5516 88.9781 39.6994C85.2893 38.555 79.9199 35.0188 76.289 32.6274C75.6958 32.2368 75.149 31.8766 74.6636 31.5625C69.6809 28.4253 65.1782 24.6481 60.7394 20.9244L60.734 20.9199C60.0546 20.35 59.3768 19.7814 58.6989 19.2165C54.6545 16.0236 50.3973 13.2564 46.14 10.4892C45.5724 10.128 44.8672 9.79178 44.17 9.45939C41.991 8.42059 39.8896 7.41882 42.3085 5.80621C42.8667 5.38761 44.065 5.33487 45.1242 5.28826C45.6809 5.26376 46.1991 5.24095 46.5658 5.16762C67.005 1.48185 88.2354 3.07047 109.219 4.64064C114.896 5.06545 120.556 5.48892 126.176 5.80621C139.374 6.44479 152.518 7.29624 165.662 8.14769C178.806 8.99914 191.951 9.85059 205.148 10.4892C213.431 10.9989 221.791 11.2798 230.135 11.5601C235.729 11.7481 241.316 11.9358 246.869 12.1921C252.177 12.4409 257.615 12.1726 263.068 11.9036C270.934 11.5155 278.832 11.1258 286.424 12.2835C282.046 12.6588 277.665 13.2139 273.27 13.7709C267.343 14.5217 261.39 15.276 255.383 15.5978C244.102 16.0235 232.82 16.875 221.325 18.1521C197.059 20.4936 173.006 23.2608 149.165 28.1567C137.032 30.711 125.325 33.9039 113.404 37.3097C107.478 39.0528 101.98 39.7967 96.092 40.5934L96.0842 40.5944L96.0767 40.5954C94.7791 40.771 93.4625 40.9492 92.1182 41.1413ZM268.794 23.8994C272.322 22.6925 275.769 21.445 279.1 20.0157C277.127 21.7831 275.096 23.4573 273.072 25.1255L273.07 25.127L273.068 25.1288C271.849 26.1339 270.632 27.1368 269.432 28.1567C264.854 31.9925 260.06 35.5406 255.259 39.0937C251.802 41.6527 248.339 44.215 244.953 46.8886C243.064 48.3577 241.177 49.8288 239.291 51.2998L239.289 51.3014L239.281 51.3079C222.036 64.7538 204.811 78.1847 186.203 89.8867C179.039 94.4156 171.684 98.4349 164.36 102.437C152.75 108.781 141.218 115.083 130.646 123.306C130.458 123.462 130.253 123.646 130.032 123.844C128.748 124.989 126.959 126.587 125.325 125.86C123.91 125.33 122.348 121.125 121.372 118.497C121.173 117.963 120.998 117.493 120.854 117.133C118.726 112.237 116.81 107.129 115.107 102.02C114.545 100.374 114.006 98.6835 113.461 96.9743C111.356 90.371 109.163 83.4947 105.238 77.9085C108.424 76.6864 111.721 75.7178 115.142 74.7125C117.348 74.0645 119.606 73.4011 121.919 72.6448C129.6 70.0844 137.355 67.7071 145.107 65.3306C156.044 61.9776 166.976 58.6261 177.689 54.7644C192.848 49.3505 208.119 44.4986 223.421 39.6369C229.177 37.8084 234.936 35.9785 240.696 34.1168C244.859 32.6977 249.021 31.1104 253.184 29.5232C258.387 27.5391 263.591 25.555 268.794 23.8994Z" fill="white"/>
<path fill-rule="evenodd" clip-rule="evenodd" d="M61.0403 119.9C61.0403 119.9 61.2532 120.113 61.2532 120.326C61.5541 120.777 60.2598 121.441 59.3246 121.191C46.0872 134.641 34.2083 152.29 28.2595 170.136C28.163 170.418 28.0644 170.705 27.9642 170.997C26.1701 176.22 23.8734 182.907 23.982 188.98C26.9061 183.734 30.6304 178.916 36.3483 177.586C43.5856 176.096 47.63 181.417 47.63 188.229C47.63 195.466 43.1599 204.406 35.284 205.258C29.3335 205.868 24.8047 201.885 22.6384 196.836L21.448 199.085C16.765 208.664 13.9978 218.668 11.2306 228.886C10.7744 230.669 10.302 232.452 9.8292 234.237C7.87542 241.614 5.91452 249.017 5.05758 256.558C4.46979 261.26 5.24542 265.573 6.02192 269.891C6.65143 273.391 7.28151 276.894 7.1862 280.611C7.1862 281.675 4.419 282.101 4.419 281.037C4.52469 277.76 3.84316 274.589 3.15618 271.392C2.45963 268.15 1.75748 264.883 1.86465 261.454C1.86465 254.509 3.68496 247.565 5.42877 240.913C5.66271 240.02 5.89528 239.133 6.12189 238.252L6.28403 237.603C9.63652 224.19 13.0348 210.593 19.3193 198.233C19.8573 197.187 20.3994 196.07 20.9593 194.916C21.1715 194.479 21.3862 194.036 21.6042 193.591C21.3888 192.588 21.2638 191.573 21.2351 190.57C20.8094 178.437 26.9824 164.388 32.9425 153.958C39.5196 142.077 48.6342 129.773 58.3895 120.208C58.3332 120.126 58.2731 120.013 58.2731 119.9C58.4953 119.845 58.7175 119.804 58.9397 119.773C59.6625 119.357 60.6972 119.214 61.0403 119.9ZM24.5284 193.266C24.9655 194.972 25.6859 196.576 26.7695 198.021C32.0911 205.045 40.6055 202.491 43.5856 194.828C44.8628 191.635 45.2885 188.016 44.4371 184.61C44.2242 183.12 43.5856 181.843 42.7342 180.779C40.6055 181.205 38.5301 181.63 36.4547 182.056C34.3793 182.482 32.3039 182.907 30.1753 183.333C29.2613 184.095 28.5653 185.511 27.9313 186.8C27.6794 187.313 27.4373 187.805 27.1952 188.229L24.5284 193.266Z" fill="white"/>
<path fill-rule="evenodd" clip-rule="evenodd" d="M268.026 10.6003C275.296 10.2368 282.591 9.87204 289.654 11.1278C290.501 11.2336 290.348 11.6554 289.901 12.0265C290.173 12.0098 290.446 11.994 290.719 11.9791C291.57 11.9791 292.421 12.6177 291.357 13.2563C288.539 15.2815 285.576 16.9788 282.497 18.4689C281.705 19.2586 280.928 20.0668 280.18 20.8447C278.9 22.176 277.706 23.4182 276.669 24.3252C272.412 28.1567 267.942 31.9882 263.259 35.394C253.468 42.6313 243.889 49.8686 234.31 57.3188C215.578 72.0063 196.208 86.268 175.56 97.9755C171.594 100.242 167.582 102.343 163.584 104.436C155.566 108.634 147.611 112.8 140.225 118.197C139.296 118.908 138.198 119.927 136.997 121.042C133.521 124.271 129.176 128.305 125.537 127.989C120.711 127.631 117.686 118.116 115.958 112.682C115.628 111.645 115.346 110.757 115.107 110.109C113.951 107.066 112.934 103.78 111.897 100.429C110.769 96.7842 109.617 93.0624 108.237 89.495C102.131 93.0064 95.3804 95.1638 88.627 97.3223C83.8393 98.8524 79.0501 100.383 74.4882 102.397C73.5533 103.138 72.6184 103.851 71.6834 104.361C71.2577 104.574 69.1291 105.213 69.3419 104.149C70.0533 98.5594 71.9289 93.31 74.0888 88.1453C74.1382 87.9453 74.1878 87.7453 74.2378 87.5453C74.2747 87.361 74.3882 87.1958 74.5495 87.0542C75.1059 85.7481 75.6766 84.4463 76.2472 83.1446L76.2484 83.1418C76.4648 82.6483 76.6811 82.1548 76.8967 81.661C77.4125 80.2005 77.9473 78.7417 78.4809 77.2862L78.4819 77.2836C79.9989 73.146 81.5065 69.034 82.5394 64.9818C83.178 62.4274 83.7634 59.8198 84.3488 57.2122C84.9341 54.6047 85.5195 51.9972 86.1581 49.4429C86.2559 49.0025 86.3313 48.4272 86.4152 47.7867C86.6963 45.6408 87.0732 42.7634 88.7124 41.7798C88.9271 41.6367 89.1298 41.5296 89.3245 41.4496C89.4372 41.3157 89.5578 41.1763 89.6874 41.0294C89.1271 41.5739 87.6589 41.6955 87.4509 41.2497C85.3144 40.6634 83.6942 39.5548 82.0133 38.4046C81.0402 37.7386 80.0466 37.0588 78.9208 36.4583C77.9507 35.8967 76.9928 35.3595 76.0472 34.8293C73.0506 33.1488 70.1769 31.5373 67.4263 29.4339C64.6419 27.4291 61.9158 25.4098 59.206 23.4026C51.558 17.7374 44.04 12.1686 35.7098 7.29624C34.8584 6.87052 35.7098 6.44479 36.1355 6.23193C40.586 4.00669 46.413 3.29557 51.624 2.65963C52.8932 2.50474 54.1258 2.35431 55.2931 2.18755C62.3485 1.38581 69.6454 1.67118 76.82 1.95177C79.1696 2.04366 81.5061 2.13504 83.8166 2.18755C102.067 2.51938 120.189 3.75647 138.282 4.99162C143.401 5.34111 148.518 5.69044 153.635 6.01907C177.476 7.72197 201.316 8.99914 225.157 9.85059C228.502 9.97222 231.847 10.1286 235.192 10.285C243.554 10.676 251.917 11.0669 260.279 10.9149C262.851 10.859 265.437 10.7297 268.026 10.6003ZM77.6436 98.4012C78.6396 97.9032 79.7651 98.3115 79.4046 98.9192C82.1263 97.9337 84.8916 97.0442 87.6544 96.1556C94.1858 94.0549 100.703 91.9589 106.593 88.6096C106.884 88.4639 107.374 88.4179 107.826 88.4545C106.446 85.0368 104.834 81.7842 102.805 78.905C99.1013 80.5274 95.5471 82.6087 92.1182 85.6294C90.5217 87.1195 88.7656 88.3966 87.0095 89.6738C85.2534 90.951 83.4973 92.2281 81.9008 93.7182C81.3761 94.1846 80.6598 95.0022 79.835 95.9438C79.1486 96.7274 78.387 97.5967 77.5982 98.4208L77.6436 98.4012ZM76.4093 96.3026C76.8006 94.1704 78.8466 86.7235 81.1641 78.4536C82.2324 75.9057 83.2258 73.3411 84.0294 70.7292C85.229 66.9805 86.1117 63.0206 86.9751 59.147C87.3374 57.5217 87.6963 55.9117 88.0738 54.3388C88.401 52.9645 88.8087 51.5499 89.2227 50.1136C89.9561 47.5689 90.7092 44.9562 91.069 42.3785C91.1328 42.3163 91.1987 42.2585 91.2668 42.2056C92.153 41.467 95.9091 41.446 98.5522 41.4311C99.7181 41.4246 100.668 41.4193 101.058 41.3541C106.189 40.4486 111.107 39.0082 116.037 37.5637C118.061 36.9709 120.088 36.3771 122.132 35.8197C157.467 25.8152 194.079 21.9837 230.691 18.365C238.993 17.5136 247.295 17.0346 255.596 16.5557C263.898 16.0767 272.2 15.5978 280.501 14.7464L285.371 14.0507C284.779 14.5533 284.228 15.1086 283.674 15.6666C283.196 16.1491 282.715 16.6336 282.204 17.0879C282.014 17.2776 281.823 17.466 281.632 17.653C280.077 18.2989 278.402 18.8872 277.001 19.3792C275.988 19.735 275.118 20.0405 274.541 20.2808C271.274 21.5298 267.921 22.6054 264.559 23.6837C260.473 24.9943 256.374 26.3089 252.403 27.9438C241.744 32.1264 230.829 35.4538 219.874 38.7933C213.546 40.7224 207.204 42.6556 200.891 44.7599C193.121 47.4207 185.299 50.0815 177.476 52.7422C169.653 55.403 161.831 58.0638 154.061 60.7246C149.003 62.531 143.877 64.0649 138.76 65.5961C134.832 66.7713 130.909 67.9451 127.028 69.239C123.822 70.3074 120.505 71.1896 117.186 72.0725C112.673 73.2729 108.154 74.4748 103.905 76.1476L103.825 76.0507C103.4 75.4121 101.484 75.8378 101.271 76.4764C101.165 76.5828 101.111 76.6892 101.058 76.7957C101.005 76.9021 100.952 77.0085 100.845 77.115C100.741 77.2882 100.728 77.4277 100.78 77.536C96.8706 79.4981 93.9577 81.8716 90.5401 84.6563C89.8164 85.2461 89.07 85.8542 88.2867 86.4809C86.3136 88.1818 84.3188 89.7957 82.337 91.3991C80.3364 93.0177 78.3477 94.6268 76.4093 96.3026ZM92.1182 41.1413C91.7901 41.1959 91.4902 41.2085 91.2038 41.2113C91.2316 40.9034 91.2528 40.5962 91.2667 40.2899C91.2667 40.077 91.2667 39.8642 91.0539 39.8642C90.9474 39.8642 90.841 39.811 90.7346 39.7577C90.6282 39.7045 90.5217 39.6513 90.4153 39.6513C90.016 39.5182 89.4501 39.5516 88.9781 39.6994C85.2893 38.555 79.9199 35.0188 76.289 32.6274C75.6958 32.2368 75.149 31.8766 74.6636 31.5625C69.6809 28.4253 65.1782 24.6481 60.7394 20.9244L60.734 20.9199C60.0546 20.35 59.3768 19.7814 58.6989 19.2165C54.6545 16.0236 50.3973 13.2564 46.14 10.4892C45.5724 10.128 44.8672 9.79178 44.17 9.45939C41.991 8.42059 39.8896 7.41882 42.3085 5.80621C42.8667 5.38761 44.065 5.33487 45.1242 5.28826C45.6809 5.26376 46.1991 5.24095 46.5658 5.16762C67.005 1.48185 88.2354 3.07047 109.219 4.64064C114.896 5.06545 120.556 5.48892 126.176 5.80621C139.374 6.44479 152.518 7.29624 165.662 8.14769C178.806 8.99914 191.951 9.85059 205.148 10.4892C213.431 10.9989 221.791 11.2798 230.135 11.5601C235.729 11.7481 241.316 11.9358 246.869 12.1921C252.177 12.4409 257.615 12.1726 263.068 11.9036C270.934 11.5155 278.832 11.1258 286.424 12.2835C282.046 12.6588 277.665 13.2139 273.27 13.7709C267.343 14.5217 261.39 15.276 255.383 15.5978C244.102 16.0235 232.82 16.875 221.325 18.1521C197.059 20.4936 173.006 23.2608 149.165 28.1567C137.032 30.711 125.325 33.9039 113.404 37.3097C107.478 39.0528 101.98 39.7967 96.092 40.5934L96.0842 40.5944L96.0767 40.5954C94.7791 40.771 93.4625 40.9492 92.1182 41.1413ZM268.794 23.8994C272.322 22.6925 275.769 21.445 279.1 20.0157C277.127 21.7831 275.096 23.4573 273.072 25.1255L273.07 25.127L273.068 25.1288C271.849 26.1339 270.632 27.1368 269.432 28.1567C264.854 31.9925 260.06 35.5406 255.259 39.0937C251.802 41.6527 248.339 44.215 244.953 46.8886C243.064 48.3577 241.177 49.8288 239.291 51.2998L239.289 51.3014L239.281 51.3079C222.036 64.7538 204.811 78.1847 186.203 89.8867C179.039 94.4156 171.684 98.4349 164.36 102.437C152.75 108.781 141.218 115.083 130.646 123.306C130.458 123.462 130.253 123.646 130.032 123.844C128.748 124.989 126.959 126.587 125.325 125.86C123.91 125.33 122.348 121.125 121.372 118.497C121.173 117.963 120.998 117.493 120.854 117.133C118.726 112.237 116.81 107.129 115.107 102.02C114.545 100.374 114.006 98.6835 113.461 96.9743C111.356 90.371 109.163 83.4947 105.238 77.9085C108.424 76.6864 111.721 75.7178 115.142 74.7125C117.348 74.0645 119.606 73.4011 121.919 72.6448C129.6 70.0844 137.355 67.7071 145.107 65.3306C156.044 61.9776 166.976 58.6261 177.689 54.7644C192.848 49.3505 208.119 44.4986 223.421 39.6369C229.177 37.8084 234.936 35.9785 240.696 34.1168C244.859 32.6977 249.021 31.1104 253.184 29.5232C258.387 27.5391 263.591 25.555 268.794 23.8994Z" stroke="white" stroke-width="2" mask="url(#path-1-outside-1)"/>
<path fill-rule="evenodd" clip-rule="evenodd" d="M61.0403 119.9C61.0403 119.9 61.2532 120.113 61.2532 120.326C61.5541 120.777 60.2598 121.441 59.3246 121.191C46.0872 134.641 34.2083 152.29 28.2595 170.136C28.163 170.418 28.0644 170.705 27.9642 170.997C26.1701 176.22 23.8734 182.907 23.982 188.98C26.9061 183.734 30.6304 178.916 36.3483 177.586C43.5856 176.096 47.63 181.417 47.63 188.229C47.63 195.466 43.1599 204.406 35.284 205.258C29.3335 205.868 24.8047 201.885 22.6384 196.836L21.448 199.085C16.765 208.664 13.9978 218.668 11.2306 228.886C10.7744 230.669 10.302 232.452 9.8292 234.237C7.87542 241.614 5.91452 249.017 5.05758 256.558C4.46979 261.26 5.24542 265.573 6.02192 269.891C6.65143 273.391 7.28151 276.894 7.1862 280.611C7.1862 281.675 4.419 282.101 4.419 281.037C4.52469 277.76 3.84316 274.589 3.15618 271.392C2.45963 268.15 1.75748 264.883 1.86465 261.454C1.86465 254.509 3.68496 247.565 5.42877 240.913C5.66271 240.02 5.89528 239.133 6.12189 238.252L6.28403 237.603C9.63652 224.19 13.0348 210.593 19.3193 198.233C19.8573 197.187 20.3994 196.07 20.9593 194.916C21.1715 194.479 21.3862 194.036 21.6042 193.591C21.3888 192.588 21.2638 191.573 21.2351 190.57C20.8094 178.437 26.9824 164.388 32.9425 153.958C39.5196 142.077 48.6342 129.773 58.3895 120.208C58.3332 120.126 58.2731 120.013 58.2731 119.9C58.4953 119.845 58.7175 119.804 58.9397 119.773C59.6625 119.357 60.6972 119.214 61.0403 119.9ZM24.5284 193.266C24.9655 194.972 25.6859 196.576 26.7695 198.021C32.0911 205.045 40.6055 202.491 43.5856 194.828C44.8628 191.635 45.2885 188.016 44.4371 184.61C44.2242 183.12 43.5856 181.843 42.7342 180.779C40.6055 181.205 38.5301 181.63 36.4547 182.056C34.3793 182.482 32.3039 182.907 30.1753 183.333C29.2613 184.095 28.5653 185.511 27.9313 186.8C27.6794 187.313 27.4373 187.805 27.1952 188.229L24.5284 193.266Z" stroke="white" stroke-width="2" mask="url(#path-1-outside-1)"/>
</svg>
