<svg width="368" height="328" viewBox="0 0 368 328" fill="none" xmlns="http://www.w3.org/2000/svg">
<path fill-rule="evenodd" clip-rule="evenodd" d="M326.019 66.3466C316.741 57.0803 301.05 51.4004 288.409 55.2752C285.516 42.7931 278.147 31.5241 268.428 22.8452C252.619 8.82803 231.809 3.02783 211.322 1.09445C199.223 -0.0333899 186.64 -0.194492 174.541 0.772213C165.185 1.41668 156.474 3.99453 149.86 10.9225C137.995 23.305 132.63 41.2991 132.308 58.4488C118.123 32.5524 77.0692 28.849 52.2623 40.0847C37.2597 46.8515 25.8061 59.5797 23.8703 76.1747C22.2783 89.1844 26.5295 102.453 36.7407 110.629C18.7877 112.297 4.23928 127.124 0.963161 144.971C-2.90848 165.917 7.09323 187.99 22.2571 202.329C48.4775 227.277 91.1118 232.702 122.462 214.447C118.634 227.036 126.294 240.444 137.599 246.958C145.665 251.47 154.861 253.403 163.894 254.531C175.348 256.142 186.963 257.27 198.578 257.431C218.258 257.753 238.746 254.531 254.555 242.125C266.435 232.75 274.848 219.246 275.187 204.157C286.189 219.288 301.55 232.212 321.018 233.102C341.505 234.069 356.024 221.18 361.831 202.168C368.445 180.578 370.543 153.188 360.218 132.404C353.005 117.864 339.926 106.945 324.798 101.639C328.973 99.7119 332.426 95.9404 334.085 91.3197C337.311 82.2972 332.31 72.7913 326.019 66.3466ZM287.625 71.1801C287.869 66.9412 287.654 62.9086 287.033 59.0804C283.883 60.4173 281.043 62.5184 278.753 65.5411C277.623 67.1522 274.881 65.5411 276.01 63.9299C278.91 60.1305 282.488 57.5431 286.43 55.971C279.167 23.8447 242.652 6.96392 211.16 4.15567C201.804 3.35006 192.286 3.35006 182.768 3.5112C171.96 3.83343 161.152 4.4779 152.925 12.3726C138.556 26.0854 134.142 49.424 136.085 68.3333C136.106 68.4228 136.127 68.5125 136.148 68.6023L136.113 68.6072C136.125 68.7131 136.136 68.8189 136.148 68.9245C136.309 70.8579 133.244 71.1802 132.76 69.4079C125.662 38.1512 83.558 31.5455 57.7471 41.0514C43.5511 46.3682 30.9683 57.0019 27.7419 72.308C24.6769 86.6473 29.1938 102.437 42.0992 110.331C43.3898 111.137 42.9058 113.232 41.2927 113.07C41.047 113.059 40.8021 113.049 40.558 113.042C40.5348 113.106 40.511 113.169 40.486 113.232C40.3766 113.166 40.2678 113.1 40.1595 113.033C17.5401 112.654 1.94686 134.049 2.89898 155.444C3.70556 175.745 15.6431 194.595 31.9362 206.357C58.8763 225.53 96.786 227.624 124.694 209.579C125.823 208.774 127.275 210.385 126.63 211.513C116.467 230.041 136.148 245.669 152.279 249.697C168.734 253.886 187.447 255.014 204.385 254.531C235.519 253.886 275.365 236.486 272.3 199.268C272.139 197.818 274.236 197.496 274.881 198.623C285.689 214.896 301.498 229.719 322.147 230.041C344.248 230.363 356.347 214.091 360.702 194.273C365.058 174.134 366.832 150.611 356.508 131.921C348.398 117.194 333.953 106.775 317.732 103.001C316.537 102.923 315.331 102.688 314.133 102.278C313.943 102.246 313.752 102.214 313.56 102.184C313.411 102.16 313.263 102.137 313.113 102.115C313.136 102.047 313.157 101.979 313.178 101.911C311.367 101.061 312.178 98.5754 314.081 98.8922C315.767 99.1705 317.439 99.5173 319.094 99.9301C326.525 99.5036 332.354 91.8671 331.826 84.2306C331.181 75.3692 323.922 67.6356 316.824 63.1243C308.875 58.2042 297.973 55.5347 289.025 58.3476C289.734 62.522 289.938 66.8159 289.561 71.1801C289.4 72.4691 287.464 72.4691 287.625 71.1801Z" fill="white"/>
<path fill-rule="evenodd" clip-rule="evenodd" d="M95.1933 303.336C87.431 307.009 78.4979 301.011 73.0927 294.092C68.42 298.588 61.5479 300.428 55.3274 297.388C45.3257 292.554 42.9059 278.537 43.5512 268.548C44.6804 247.764 64.1999 228.752 85.4938 237.936C86.4314 238.31 86.4426 239.392 85.9709 240.107C88.8488 242.026 91.0484 244.669 92.4829 247.652C95.6916 249.754 98.15 252.686 98.5606 256.786C98.9048 261.027 96.8008 265.104 93.3513 266.815C97.1515 268.999 99.9394 272.459 101.787 276.765C104.045 282.243 106.465 293.682 103.239 298.999C101.585 301.752 98.4661 302.989 95.1933 303.336ZM82.2675 243.575C83.4696 243.861 84.7327 244.208 86.0017 244.63C84.4098 243.09 82.4957 241.879 80.3317 241.158C69.846 237.614 58.5538 243.414 53.0689 252.597C48.5521 260.17 47.2615 269.192 48.0681 277.732C48.4656 281.835 49.4075 286.59 51.6985 290.301C54.4769 293.494 58.1538 295.594 61.8856 295.906C65.986 295.854 69.7546 293.639 69.846 288.526C69.846 287.399 71.6205 286.754 72.1045 287.882C72.4333 288.514 72.774 289.137 73.1291 289.75C73.1915 289.654 73.2534 289.558 73.3149 289.46C73.3417 289.418 73.3684 289.375 73.395 289.332C73.879 288.526 75.3308 288.365 75.8148 289.332C78.0599 293.817 85.4441 299.953 91.7479 300.566C95.7976 299.674 99.1458 296.721 100.174 291.588C102.123 282.152 95.1513 274.666 88.8468 268.481C88.7512 268.449 88.6552 268.417 88.5589 268.387C87.8473 268.209 87.4791 267.689 87.427 267.095C86.6241 266.289 87.1084 264.52 88.3976 264.681C88.4747 264.69 88.551 264.698 88.6266 264.706C92.1286 259.649 91.7163 253.096 88.7208 248.072C86.4761 246.868 83.9295 246.23 81.4609 245.669C80.1703 245.347 80.8156 243.253 82.2675 243.575ZM94.3749 254.667C94.6258 257.87 94.0836 261.128 92.6674 264.082C95.6309 262.471 95.6938 258.272 94.3749 254.667Z" fill="white"/>
<path fill-rule="evenodd" clip-rule="evenodd" d="M42.2247 321.148C43.117 319.818 43.8457 318.241 44.3577 316.4C45.3256 313.177 45.1643 309.472 43.5511 306.41C42.2425 303.915 40.7584 303.26 38.9047 302.442C38.2448 302.151 37.5381 301.839 36.7758 301.416C36.6045 301.315 36.4194 301.178 36.2219 301.011C36.2023 300.496 36.14 299.852 35.9691 298.999C34.2963 290.493 24.5949 291.295 18.0828 292.764C20.5389 290.944 23.4815 289.767 26.774 289.493C28.1089 289.493 28.2165 287.45 27.0967 287.246V286.915C24.2298 287.104 21.6829 287.864 19.4571 289.063C9.2944 293.391 2.3009 304.493 6.77063 315.916C7.32403 317.298 8.20373 318.828 9.34616 320.023C11.6287 324.682 16.7495 324.842 20.4428 321.992C21.705 323.345 23.204 324.437 24.8307 325.236C29.7101 329.312 39.2599 328.143 42.2247 321.148ZM25.0948 293.661C24.6112 293.971 24.1468 294.45 23.709 295.132C23.225 295.938 24.5156 296.743 25.3222 295.293C26.4885 293.449 28.8844 295.64 30.9577 297.99C31.6954 299.453 32.2892 301.291 32.7428 303.51C32.4202 303.994 32.5815 304.638 33.0654 304.96C37.905 307.86 41.9379 312.855 40.3247 318.978C40.2609 319.21 40.1895 319.436 40.1109 319.656C37.8793 322.551 34.5666 324.545 30.807 324.456C28.5093 324.406 26.4281 323.661 24.664 322.45C23.8824 321.248 23.4837 319.71 23.6644 317.843C23.9521 317.191 24.1855 316.494 24.3543 315.755C24.6769 314.466 22.7411 313.983 22.4185 315.272C22.397 315.348 22.3763 315.423 22.3562 315.498L22.0958 315.433C21.321 315.843 20.5834 316.211 19.883 316.538C19.3841 315.391 19.0298 314.18 18.8394 312.949C18.8161 312.76 18.7908 312.573 18.7639 312.387C18.6721 311.578 18.6517 310.763 18.7082 309.955C18.5854 309.996 18.4523 310.026 18.3114 310.052C17.9531 309.372 16.611 309.718 16.611 310.599C16.4416 312.842 16.7115 314.895 17.3193 316.731C17.2997 316.836 17.2787 316.94 17.2563 317.044C14.5131 318.231 12.4437 318.487 11.0481 317.81C10.2975 317.183 9.94714 316.12 9.99697 314.627V310.599C9.99697 308.022 10.481 305.444 11.1262 303.027C12.0954 299.676 13.8571 296.67 16.236 294.341C16.3885 294.78 16.8152 295.122 17.4176 294.971C19.0308 294.488 20.644 294.166 22.4185 294.004C23.3724 293.745 24.2642 293.63 25.0948 293.661ZM36.4224 303.381C36.6478 303.908 37.1143 304.548 38.0663 305.605C40.3021 308.117 42.1748 310.508 42.8455 313.617C42.9746 312.937 43.05 312.251 43.0671 311.566C43.0671 307.46 40.3178 305.776 37.5099 304.056C37.1465 303.834 36.782 303.611 36.4224 303.381ZM7.93789 311.945C7.88555 307.152 8.90908 302.273 11.0012 298.108C10.3603 299.127 9.80651 300.23 9.35171 301.416C8.21679 304.312 7.18045 308.489 7.93789 311.945Z" fill="white"/>
<path d="M113.878 155.81C113.318 155.81 112.548 155.203 111.568 153.99C110.588 152.73 110.098 151.54 110.098 150.42C110.098 149.3 111.124 144.727 113.178 136.7C112.571 136.467 112.034 136.07 111.568 135.51C111.148 134.903 110.938 134.227 110.938 133.48C110.938 132.873 112.151 132.197 114.578 131.45C117.704 119.223 119.268 111.64 119.268 108.7C119.268 107.907 119.361 107.37 119.548 107.09C119.781 106.763 120.201 106.6 120.808 106.6C121.461 106.6 122.301 107.323 123.328 108.77C124.401 110.217 124.938 111.85 124.938 113.67C124.938 115.443 123.794 120.833 121.508 129.84C127.668 128.58 133.711 127.763 139.638 127.39C142.018 117.683 143.208 111.453 143.208 108.7C143.208 107.3 143.674 106.6 144.608 106.6C145.401 106.6 146.334 107.323 147.408 108.77C148.481 110.217 149.018 111.733 149.018 113.32C149.018 114.86 147.968 119.597 145.868 127.53C148.014 127.857 149.088 128.51 149.088 129.49C149.088 130.423 147.641 131.193 144.748 131.8C143.254 137.307 142.228 141.133 141.668 143.28C141.154 145.38 140.734 147.06 140.408 148.32C140.081 149.58 139.731 150.84 139.358 152.1C138.704 154.573 138.121 155.81 137.608 155.81C136.954 155.81 136.184 155.273 135.298 154.2C134.458 153.08 134.038 151.937 134.038 150.77C134.038 149.603 135.438 143.607 138.238 132.78C131.424 133.713 125.288 134.787 119.828 136C119.174 138.427 118.544 140.783 117.938 143.07C117.378 145.31 116.934 147.06 116.608 148.32C116.281 149.58 115.931 150.84 115.558 152.1C114.904 154.573 114.344 155.81 113.878 155.81ZM182.472 132.85C182.472 135.323 181.119 137.353 178.412 138.94C175.752 140.48 172.719 141.25 169.312 141.25C165.952 141.25 162.895 140.877 160.142 140.13C159.489 142.183 159.162 144.027 159.162 145.66C159.162 147.247 159.652 148.483 160.632 149.37C161.659 150.257 163.315 150.7 165.602 150.7C167.935 150.7 170.315 150.303 172.742 149.51C175.215 148.67 176.569 148.25 176.802 148.25C178.015 148.25 178.622 148.717 178.622 149.65C178.622 150.91 177.199 152.287 174.352 153.78C171.505 155.227 168.729 155.95 166.022 155.95C162.382 155.95 159.419 154.877 157.132 152.73C154.845 150.537 153.702 147.783 153.702 144.47C153.702 141.157 154.589 137.703 156.362 134.11C158.135 130.47 160.422 127.413 163.222 124.94C166.022 122.467 168.799 121.23 171.552 121.23C174.305 121.23 176.802 122.537 179.042 125.15C181.329 127.763 182.472 130.33 182.472 132.85ZM171.902 126.76C170.175 126.76 168.379 127.67 166.512 129.49C164.645 131.263 163.059 133.48 161.752 136.14C163.619 136.56 165.742 136.77 168.122 136.77C170.502 136.77 172.579 136.397 174.352 135.65C176.125 134.857 177.012 133.83 177.012 132.57C177.012 131.31 176.429 130.027 175.262 128.72C174.142 127.413 173.022 126.76 171.902 126.76ZM199.846 107.51C199.846 116.283 198.026 127.67 194.386 141.67C192.052 151.19 190.419 155.95 189.486 155.95C188.832 155.95 188.062 155.437 187.176 154.41C186.336 153.383 185.916 152.59 185.916 152.03C185.916 151.47 186.592 148.577 187.946 143.35C189.299 138.123 190.652 131.707 192.006 124.1C193.359 116.447 194.036 109.563 194.036 103.45C194.036 102.797 194.129 102.33 194.316 102.05C194.502 101.77 194.899 101.63 195.506 101.63C196.112 101.63 196.976 102.307 198.096 103.66C199.262 104.967 199.846 106.25 199.846 107.51ZM217.004 107.51C217.004 116.283 215.184 127.67 211.544 141.67C209.211 151.19 207.577 155.95 206.644 155.95C205.991 155.95 205.221 155.437 204.334 154.41C203.494 153.383 203.074 152.59 203.074 152.03C203.074 151.47 203.751 148.577 205.104 143.35C206.457 138.123 207.811 131.707 209.164 124.1C210.517 116.447 211.194 109.563 211.194 103.45C211.194 102.797 211.287 102.33 211.474 102.05C211.661 101.77 212.057 101.63 212.664 101.63C213.271 101.63 214.134 102.307 215.254 103.66C216.421 104.967 217.004 106.25 217.004 107.51ZM241.512 133.13C241.512 131.543 241.255 130.05 240.742 128.65C240.229 127.203 239.482 126.153 238.502 125.5C235.282 126.387 232.505 128.883 230.172 132.99C227.885 137.05 226.742 140.877 226.742 144.47C226.742 148.063 227.629 150.303 229.402 151.19C232.762 150.537 235.609 148.25 237.942 144.33C240.322 140.363 241.512 136.63 241.512 133.13ZM223.102 133.76C224.735 130.12 226.859 127.133 229.472 124.8C232.132 122.42 234.839 121.23 237.592 121.23C240.392 121.23 242.725 122.42 244.592 124.8C246.459 127.133 247.392 130.003 247.392 133.41C247.392 136.77 246.575 140.223 244.942 143.77C243.309 147.27 241.045 150.187 238.152 152.52C235.305 154.807 232.272 155.95 229.052 155.95C226.672 155.95 224.689 154.853 223.102 152.66C221.515 150.467 220.722 147.69 220.722 144.33C220.722 140.923 221.515 137.4 223.102 133.76ZM255.871 148.46C256.664 147.48 257.458 146.99 258.251 146.99C259.044 146.99 260.001 148.133 261.121 150.42C262.241 152.66 262.801 154.34 262.801 155.46C262.801 155.787 262.568 156.16 262.101 156.58C261.634 157 261.191 157.21 260.771 157.21C259.604 157.21 258.298 156.487 256.851 155.04C255.404 153.547 254.681 152.333 254.681 151.4C254.681 150.42 255.078 149.44 255.871 148.46ZM264.901 100.3C265.788 100.3 267.001 100.86 268.541 101.98C270.081 103.1 270.851 103.987 270.851 104.64C270.851 108.607 269.824 115.583 267.771 125.57C265.764 135.557 264.154 140.55 262.941 140.55C262.194 140.55 261.494 140.177 260.841 139.43C260.188 138.637 259.861 137.82 259.861 136.98C259.814 136.7 260.094 135.02 260.701 131.94C261.354 128.86 262.031 124.543 262.731 118.99C263.431 113.39 263.781 107.767 263.781 102.12C263.781 100.907 264.154 100.3 264.901 100.3Z" fill="white"/>
</svg>
