<svg width="270" height="291" viewBox="0 0 270 291" fill="none" xmlns="http://www.w3.org/2000/svg">
<path d="M64.6168 211.815C50.2418 213.062 34.4085 200.383 26.4918 189.574C18.3668 178.35 12.3252 165.671 8.78349 152.16C4.61682 136.363 4.20016 120.981 7.32516 104.768C10.0335 91.0498 14.2002 77.747 25.0335 67.9777C49.8252 46.1527 91.9085 50.5177 121.075 59.4556C148.367 67.7698 171.283 84.6063 187.117 108.51C203.367 133.037 211.283 166.294 192.533 191.861C183.367 204.332 170.867 216.388 157.117 223.663C142.742 231.146 128.367 234.679 112.533 237.173C97.3251 239.668 78.3668 239.46 63.3668 236.342C57.7418 235.095 51.7002 233.432 48.7835 228.028C46.4918 223.871 48.7835 220.961 53.1585 220.545C55.6585 220.337 59.2002 222 61.7002 222.416C68.1585 223.663 74.6168 224.702 80.8668 226.573C85.6585 228.028 88.3668 230.314 91.0752 234.263C95.2418 240.499 95.8668 245.072 88.3668 249.021C81.4918 252.763 70.6585 253.386 62.9502 253.386C54.6168 253.386 45.4502 252.763 38.5752 247.982C38.1585 247.566 36.4918 246.735 36.0752 245.903C34.6168 242.993 36.4918 242.37 39.4085 241.954C42.7418 241.538 47.7418 243.409 51.0752 244.241C58.9918 245.903 67.5335 248.606 75.2418 251.931C78.9918 253.594 82.5335 256.088 83.3668 260.453C84.6168 266.897 78.9918 270.223 73.5752 272.093C65.8668 274.796 57.3252 271.47 49.8252 269.807C47.3252 269.183 42.5335 268.56 40.8668 266.273C37.5335 261.701 44.4085 261.493 47.1168 261.908C51.7002 262.74 55.8668 264.195 60.2418 265.858C61.2835 266.273 64.4085 267.105 65.4501 267.936C69.4085 271.054 69.2001 276.043 65.0335 279.161C59.6168 283.318 42.5335 279.368 41.9085 289.553C41.9085 290.593 43.3668 290.801 43.9918 290.593C44.6168 290.593 45.2418 290.385 46.0752 290.385C48.5752 290.177 50.2418 287.267 46.7002 287.683C46.0752 287.683 45.4502 287.891 44.6168 287.891C45.2418 288.306 46.0752 288.514 46.7002 288.93C47.1168 283.941 52.7418 285.396 56.4918 284.981C60.0335 284.565 63.5752 283.526 66.7002 281.863C70.8668 279.576 78.1585 274.38 74.4085 268.768C72.3251 265.858 67.3251 265.026 64.2001 263.779C60.4501 262.324 56.9085 260.869 52.9502 260.038C48.3668 258.998 41.4918 257.543 37.3252 260.661C25.4502 269.599 52.9502 274.588 57.3252 275.419C66.7001 277.29 87.7418 275.835 88.5751 262.74C89.2001 254.633 82.1168 250.892 75.6585 248.813C65.2418 245.28 55.2418 241.746 44.4085 239.876C40.4502 239.252 32.7418 237.589 29.6168 240.915C26.2835 244.241 30.8668 248.19 33.5752 250.268C48.1585 260.869 72.9502 257.128 88.7835 251.931C93.3668 250.476 98.5751 248.398 99.4085 243.201C100.658 235.926 92.7418 227.612 86.7002 225.118C78.1585 221.584 68.1585 220.961 58.9918 218.882C54.6168 217.843 48.5752 215.764 44.4085 219.09C40.2418 222.416 41.9085 228.443 45.0335 232.185C49.6168 238.005 58.9918 239.46 65.6585 240.291C103.783 245.696 148.783 238.836 178.158 212.438C193.367 198.928 205.658 183.131 208.367 162.345C210.658 142.806 202.117 122.644 191.492 106.639C168.992 72.3427 128.575 51.1413 87.7418 50.102C66.2835 49.6863 43.1585 50.9334 25.2418 64.0284C7.53349 76.9156 1.90849 99.3641 0.241823 120.15C-1.42484 142.806 5.65849 165.463 17.3252 184.586C26.9085 200.175 44.4085 216.596 63.9918 214.725C66.2835 214.517 68.1585 211.607 64.6168 211.815Z" fill="#0C0D1F"/>
<path d="M76.4918 210.152C80.8668 198.928 82.7418 185.833 77.7418 174.193C71.9085 160.682 66.0751 148.626 68.5751 133.661C69.6168 127.217 76.9085 107.678 87.1168 119.526C90.0335 123.06 89.8251 128.256 89.4085 132.413C89.2001 134.492 88.3668 136.571 88.1585 138.649C86.7001 141.767 86.9085 141.559 88.9918 138.233C89.2001 137.194 89.4085 136.363 89.6168 135.323C91.0751 129.088 92.3251 121.189 98.5751 117.24C114.408 107.471 110.45 124.099 109.408 130.751C108.783 134.908 105.033 141.559 105.45 145.716C105.658 150.081 107.533 143.014 107.742 142.391C108.158 141.143 108.575 140.104 109.2 138.857C110.867 134.7 112.95 131.374 117.533 130.127C122.95 128.672 126.908 130.127 127.95 135.116C130.867 149.25 120.033 164.216 110.45 173.361C101.7 181.676 95.0335 191.861 88.1585 201.63C86.9085 203.501 91.9085 203.085 92.9501 201.838C100.033 191.861 106.492 181.676 115.45 173.361C122.533 166.918 128.992 157.98 131.492 148.626C133.158 142.806 135.658 132.206 129.2 128.464C123.367 125.138 116.075 127.217 110.867 130.543C106.075 133.661 103.575 139.481 102.117 144.885C101.075 148.626 102.117 152.16 106.7 150.081C111.283 148.003 112.325 139.896 113.367 135.739C114.825 130.543 118.783 116.824 112.742 112.875C106.908 109.133 97.9501 113.914 93.5751 117.656C87.9501 122.852 81.2835 135.531 84.6168 143.222C84.8251 143.846 85.6585 144.053 86.0751 144.053C94.2001 144.261 94.8251 132.829 94.6168 126.801C93.9918 114.953 82.3251 111.628 72.9501 117.24C61.0751 124.307 61.2835 143.014 64.2001 154.654C66.4918 163.8 72.1168 171.698 74.4085 180.844C77.1168 191.237 75.2418 201.63 71.2835 211.399C70.6585 212.438 75.8668 211.815 76.4918 210.152Z" fill="#0C0D1F"/>
<path d="M27.9502 43.0349C23.3668 39.2934 20.6585 32.8498 18.1585 27.6534C15.8668 22.6648 12.7418 17.0527 11.2835 11.6484C9.82515 12.0641 8.15849 12.4798 6.49182 13.1034C6.70015 13.3113 6.70015 13.727 6.90849 13.9348C7.53349 15.5977 12.5335 14.1427 11.9085 12.4798C11.7002 12.272 11.7002 11.8563 11.4918 11.6484C10.8668 9.98556 5.86682 11.2327 6.49182 13.1034C7.95015 19.1313 11.4918 25.5748 14.4085 31.187C16.7002 35.9677 19.4085 41.7877 23.5752 45.1134C24.8252 46.1527 29.4085 44.282 27.9502 43.0349Z" fill="#0C0D1F"/>
<path d="M111.7 32.4341C111.7 32.642 111.7 32.8498 111.492 33.0577C113.158 32.8498 114.825 32.642 116.492 32.4341C118.575 21.8334 123.575 11.8563 122.742 0.839844C122.533 -1.03087 117.95 0.631987 117.742 1.87913C117.742 2.08699 117.533 2.29484 117.533 2.5027C117.117 4.37341 122.117 3.54199 122.533 1.87913C122.533 1.67127 122.742 1.46342 122.742 1.25556C121.075 1.67127 119.408 1.87913 117.742 2.29484C118.575 13.1034 113.575 22.8727 111.492 33.0577C111.075 34.9284 116.075 34.097 116.492 32.4341C116.492 32.2263 116.492 32.0184 116.7 31.8106C117.117 30.1477 112.117 30.7713 111.7 32.4341Z" fill="#0C0D1F"/>
<path d="M214.825 95.8306C218.575 93.3363 222.325 91.0498 226.075 88.5556C229.825 85.8534 233.158 82.3198 236.7 79.202C235.242 79.202 233.575 79.202 232.117 79.202C231.908 79.8256 231.7 80.2413 231.492 80.8648C230.867 82.5277 235.867 81.9041 236.492 80.2413C236.7 79.6177 236.908 79.202 237.117 78.5784C237.95 76.7077 233.158 77.9548 232.533 78.5784C229.2 81.6963 226.075 85.022 222.325 87.7241C218.783 90.2184 215.242 92.5048 211.492 94.7913C208.783 96.2463 213.158 96.8698 214.825 95.8306Z" fill="#0C0D1F"/>
<path d="M235.242 170.659C235.242 170.867 235.242 171.075 235.242 171.491C235.242 172.114 236.283 172.322 236.7 172.322C241.283 172.53 245.45 170.659 249.825 169.204C252.117 168.373 254.617 167.749 257.117 166.918C259.617 166.086 263.158 164.008 265.867 164.423C267.533 164.631 271.7 161.929 268.992 161.721C264.825 161.306 261.7 162.553 257.95 164.008C252.742 165.878 244.408 169.828 238.783 169.62C239.2 169.828 239.825 170.036 240.242 170.451C240.242 170.243 240.242 170.036 240.242 169.62C240.242 167.541 235.033 168.788 235.242 170.659Z" fill="#0C0D1F"/>
</svg>
