<svg width="198" height="57" viewBox="0 0 198 57" fill="none" xmlns="http://www.w3.org/2000/svg">
<path d="M5.256 13.412C5.52 12.62 6.288 12.116 7.56 11.9C8.832 11.684 10.752 11.576 13.32 11.576C15.912 11.576 17.892 11.792 19.26 12.224C20.628 12.632 21.312 13.22 21.312 13.988C21.312 14.348 21.168 14.612 20.88 14.78C20.616 14.924 20.376 15.044 20.16 15.14C19.968 15.212 19.692 15.284 19.332 15.356C18.996 15.428 18.684 15.5 18.396 15.572C18.108 15.62 17.724 15.668 17.244 15.716C16.788 15.764 16.392 15.812 16.056 15.86C15.72 15.884 15.276 15.932 14.724 16.004C14.172 16.052 13.668 16.1 13.212 16.148C12.756 16.196 11.556 16.376 9.612 16.688V16.724C9.612 17.588 9.24 19.88 8.496 23.6C8.808 23.624 9.372 23.636 10.188 23.636C11.028 23.636 12.12 23.576 13.464 23.456C14.808 23.312 15.684 23.24 16.092 23.24C16.524 23.24 16.884 23.348 17.172 23.564C17.46 23.78 17.604 24.02 17.604 24.284C17.604 24.932 17.22 25.508 16.452 26.012C15.684 26.516 14.724 26.912 13.572 27.2C11.268 27.776 9.24 28.088 7.488 28.136C6.768 31.184 6.324 33.056 6.156 33.752C6.012 34.424 5.856 35.072 5.688 35.696C5.376 36.92 5.088 37.532 4.824 37.532C4.32 37.532 3.636 36.968 2.772 35.84C1.908 34.712 1.476 33.872 1.476 33.32C1.476 32.36 2.064 29.312 3.24 24.176C4.44 19.04 5.076 15.812 5.148 14.492V14.204C5.148 13.892 5.184 13.628 5.256 13.412ZM23.9397 14.492C23.9397 13.868 24.2157 13.232 24.7677 12.584C25.3437 11.912 25.8957 11.576 26.4237 11.576C26.9757 11.576 27.6237 12.224 28.3677 13.52C29.1117 14.816 29.4837 15.764 29.4837 16.364C29.4837 16.94 29.2917 17.384 28.9077 17.696C28.5237 18.008 28.1277 18.164 27.7197 18.164C27.0237 18.164 26.2197 17.708 25.3077 16.796C24.3957 15.884 23.9397 15.116 23.9397 14.492ZM24.4797 18.992C25.3197 18.992 26.0637 19.472 26.7117 20.432C27.3837 21.392 27.7197 22.316 27.7197 23.204C27.7197 23.66 27.2997 25.304 26.4597 28.136C25.6437 30.944 24.8277 33.608 24.0117 36.128C23.7237 37.064 23.1357 37.532 22.2477 37.532C21.7197 37.532 21.2517 37.34 20.8437 36.956C20.4597 36.548 20.2677 36.032 20.2677 35.408C20.2677 34.76 20.5677 33.176 21.1677 30.656C21.7917 28.112 22.2597 25.952 22.5717 24.176C22.9077 22.376 23.2077 21.068 23.4717 20.252C23.7597 19.412 24.0957 18.992 24.4797 18.992ZM43.0113 18.992C44.2593 18.992 45.3513 19.556 46.2873 20.684C47.2473 21.788 47.7273 22.976 47.7273 24.248C47.7273 26.288 47.3913 28.424 46.7193 30.656C46.0713 32.864 45.3513 34.568 44.5593 35.768C43.7913 36.968 42.9993 37.568 42.1833 37.568C41.3913 37.568 40.9953 37.004 40.9953 35.876C40.9953 35.012 41.3913 33.272 42.1833 30.656C42.7833 28.496 43.0833 26.948 43.0833 26.012C43.0833 25.076 42.9633 24.608 42.7233 24.608C42.4113 24.608 42.0993 24.764 41.7873 25.076C41.4993 25.388 41.2593 25.664 41.0673 25.904C40.8753 26.144 40.6473 26.456 40.3833 26.84C40.1433 27.2 39.9273 27.536 39.7353 27.848C39.5673 28.136 39.3393 28.52 39.0513 29C38.7873 29.456 38.5713 29.84 38.4033 30.152C38.2353 30.44 38.0193 30.824 37.7553 31.304C35.5233 35.48 33.7713 37.568 32.4993 37.568C31.9953 37.568 31.3593 37.136 30.5913 36.272C29.8233 35.384 29.4393 34.736 29.4393 34.328C29.4393 34.064 29.6073 33.5 29.9433 32.636C30.3033 31.748 30.5553 31.076 30.6993 30.62C30.8673 30.14 30.9993 29.636 31.0953 29.108C31.2153 28.58 31.3113 28.016 31.3833 27.416C31.4553 26.792 31.5033 26.312 31.5273 25.976C31.5753 25.64 31.6233 25.112 31.6713 24.392C31.8873 21.272 32.0673 19.544 32.2113 19.208C32.3793 18.872 32.5593 18.704 32.7513 18.704C33.6633 18.704 34.5393 19.088 35.3793 19.856C36.2193 20.6 36.6393 21.284 36.6393 21.908C36.6393 23.396 36.2553 25.532 35.4873 28.316C37.0473 25.58 38.4633 23.348 39.7353 21.62C41.0313 19.868 42.1233 18.992 43.0113 18.992Z" fill="#0C0D1F"/>
<path d="M54.9169 11.108C55.5169 11.108 56.2729 11.54 57.1849 12.404C58.1209 13.268 58.5889 14.12 58.5889 14.96C58.5889 15.776 58.1569 17.912 57.2929 21.368C56.4289 24.824 55.9969 27.212 55.9969 28.532C55.9969 29.828 56.1529 30.824 56.4649 31.52C56.8009 32.216 57.2569 32.564 57.8329 32.564C58.4329 32.564 59.1289 32.144 59.9209 31.304C60.7129 30.44 61.4689 29.336 62.1889 27.992C62.9329 26.624 63.5449 25.004 64.0249 23.132C64.5289 21.236 64.7809 19.484 64.7809 17.876C64.7809 16.244 64.6969 14.936 64.5289 13.952C64.3849 12.968 64.3129 12.38 64.3129 12.188C64.3129 11.444 64.6249 11.072 65.2489 11.072C66.0169 11.072 67.0009 11.72 68.2009 13.016C69.4249 14.312 70.0369 15.86 70.0369 17.66C70.0369 19.436 69.7249 21.488 69.1009 23.816C68.4769 26.12 67.6369 28.304 66.5809 30.368C65.5249 32.432 64.1809 34.148 62.5489 35.516C60.9409 36.884 59.2849 37.568 57.5809 37.568C55.9009 37.568 54.3769 36.68 53.0089 34.904C51.6409 33.128 50.9569 31.316 50.9569 29.468C50.9569 27.62 51.1969 25.484 51.6769 23.06C52.1569 20.612 52.6369 18.416 53.1169 16.472C53.5969 14.528 53.8369 13.148 53.8369 12.332C53.8369 11.516 54.1969 11.108 54.9169 11.108ZM84.175 19.028C85.063 19.028 86.011 19.82 87.019 21.404C88.051 22.988 88.567 24.572 88.567 26.156C88.567 27.116 88.159 28.256 87.343 29.576C86.527 30.896 85.495 32.144 84.247 33.32C83.023 34.472 81.595 35.456 79.963 36.272C78.355 37.088 76.819 37.496 75.355 37.496H74.923C73.411 43.784 72.343 46.928 71.719 46.928C71.215 46.928 70.687 46.508 70.135 45.668C69.559 44.828 69.271 44.132 69.271 43.58C69.271 43.028 69.619 41.336 70.315 38.504C72.379 30.104 73.411 23.768 73.411 19.496C73.411 18.776 73.759 18.416 74.455 18.416C75.031 18.416 75.763 18.74 76.651 19.388C77.539 20.036 78.091 20.876 78.307 21.908C80.347 19.988 82.303 19.028 84.175 19.028ZM76.039 33.212C77.911 32.852 79.675 31.82 81.331 30.116C83.011 28.412 83.851 26.936 83.851 25.688C83.851 24.44 83.503 23.816 82.807 23.816C81.799 23.816 80.731 24.392 79.603 25.544C79.147 26.024 78.643 26.732 78.091 27.668C77.539 28.604 77.059 29.696 76.651 30.944L76.039 33.212Z" fill="#febd22"/>
<path d="M128.533 30.7757C129.14 30.7757 129.719 30.6591 130.269 30.4257C130.82 30.1831 131.282 29.8517 131.655 29.4317L132.355 30.1597C131.87 30.6637 131.291 31.0604 130.619 31.3497C129.947 31.6297 129.243 31.7697 128.505 31.7697C127.796 31.7697 127.129 31.6391 126.503 31.3777C125.887 31.1164 125.351 30.7617 124.893 30.3137C124.436 29.8564 124.077 29.3197 123.815 28.7037C123.554 28.0784 123.423 27.4157 123.423 26.7157C123.423 26.0157 123.554 25.3577 123.815 24.7417C124.077 24.1164 124.436 23.5797 124.893 23.1317C125.351 22.6744 125.887 22.3151 126.503 22.0537C127.129 21.7924 127.796 21.6617 128.505 21.6617C129.261 21.6617 129.975 21.8064 130.647 22.0957C131.329 22.3757 131.907 22.7677 132.383 23.2717L131.669 24.0277C131.287 23.5984 130.811 23.2624 130.241 23.0197C129.681 22.7771 129.103 22.6557 128.505 22.6557C127.945 22.6557 127.418 22.7631 126.923 22.9777C126.438 23.1831 126.018 23.4677 125.663 23.8317C125.309 24.1864 125.029 24.6157 124.823 25.1197C124.618 25.6144 124.515 26.1464 124.515 26.7157C124.515 27.2851 124.618 27.8217 124.823 28.3257C125.029 28.8204 125.309 29.2497 125.663 29.6137C126.027 29.9684 126.452 30.2531 126.937 30.4677C127.432 30.6731 127.964 30.7757 128.533 30.7757ZM143.347 26.7157C143.347 27.4157 143.217 28.0784 142.955 28.7037C142.694 29.3197 142.335 29.8564 141.877 30.3137C141.429 30.7617 140.897 31.1164 140.281 31.3777C139.665 31.6391 139.007 31.7697 138.307 31.7697C137.607 31.7697 136.945 31.6391 136.319 31.3777C135.703 31.1164 135.167 30.7617 134.709 30.3137C134.261 29.8564 133.907 29.3197 133.645 28.7037C133.384 28.0784 133.253 27.4157 133.253 26.7157C133.253 26.0157 133.384 25.3577 133.645 24.7417C133.907 24.1164 134.261 23.5797 134.709 23.1317C135.167 22.6744 135.703 22.3151 136.319 22.0537C136.945 21.7924 137.607 21.6617 138.307 21.6617C139.007 21.6617 139.665 21.7924 140.281 22.0537C140.897 22.3151 141.429 22.6744 141.877 23.1317C142.335 23.5797 142.694 24.1164 142.955 24.7417C143.217 25.3577 143.347 26.0157 143.347 26.7157ZM142.255 26.7157C142.255 26.1464 142.153 25.6144 141.947 25.1197C141.742 24.6157 141.462 24.1864 141.107 23.8317C140.762 23.4677 140.347 23.1831 139.861 22.9777C139.376 22.7631 138.858 22.6557 138.307 22.6557C137.747 22.6557 137.225 22.7631 136.739 22.9777C136.254 23.1831 135.834 23.4677 135.479 23.8317C135.134 24.1864 134.859 24.6157 134.653 25.1197C134.448 25.6144 134.345 26.1464 134.345 26.7157C134.345 27.2851 134.448 27.8171 134.653 28.3117C134.859 28.8064 135.134 29.2357 135.479 29.5997C135.834 29.9637 136.254 30.2531 136.739 30.4677C137.225 30.6731 137.747 30.7757 138.307 30.7757C138.858 30.7757 139.376 30.6731 139.861 30.4677C140.347 30.2531 140.762 29.9637 141.107 29.5997C141.462 29.2357 141.742 28.8064 141.947 28.3117C142.153 27.8171 142.255 27.2851 142.255 26.7157ZM143.508 31.6157L147.582 21.8157H148.884L152.902 31.6157H151.726L150.494 28.5357H145.874L144.628 31.6157H143.508ZM146.252 27.6117H150.116L148.198 22.8237L146.252 27.6117ZM158.174 30.7757C158.781 30.7757 159.359 30.6591 159.91 30.4257C160.461 30.1831 160.923 29.8517 161.296 29.4317L161.996 30.1597C161.511 30.6637 160.932 31.0604 160.26 31.3497C159.588 31.6297 158.883 31.7697 158.146 31.7697C157.437 31.7697 156.769 31.6391 156.144 31.3777C155.528 31.1164 154.991 30.7617 154.534 30.3137C154.077 29.8564 153.717 29.3197 153.456 28.7037C153.195 28.0784 153.064 27.4157 153.064 26.7157C153.064 26.0157 153.195 25.3577 153.456 24.7417C153.717 24.1164 154.077 23.5797 154.534 23.1317C154.991 22.6744 155.528 22.3151 156.144 22.0537C156.769 21.7924 157.437 21.6617 158.146 21.6617C158.902 21.6617 159.616 21.8064 160.288 22.0957C160.969 22.3757 161.548 22.7677 162.024 23.2717L161.31 24.0277C160.927 23.5984 160.451 23.2624 159.882 23.0197C159.322 22.7771 158.743 22.6557 158.146 22.6557C157.586 22.6557 157.059 22.7631 156.564 22.9777C156.079 23.1831 155.659 23.4677 155.304 23.8317C154.949 24.1864 154.669 24.6157 154.464 25.1197C154.259 25.6144 154.156 26.1464 154.156 26.7157C154.156 27.2851 154.259 27.8217 154.464 28.3257C154.669 28.8204 154.949 29.2497 155.304 29.6137C155.668 29.9684 156.093 30.2531 156.578 30.4677C157.073 30.6731 157.605 30.7757 158.174 30.7757ZM163.63 31.6157V21.8157H164.708V26.1977H170.406V21.8157H171.484V31.6157H170.406V27.1637H164.708V31.6157H163.63ZM173.637 31.6157V21.8157H174.715V31.6157H173.637ZM176.878 21.8157H177.956L183.85 29.7677V21.8157H184.872V31.6157H183.92L177.9 23.4537V31.6157H176.878V21.8157ZM196.388 26.9257C196.388 27.6071 196.267 28.2464 196.024 28.8437C195.781 29.4317 195.445 29.9404 195.016 30.3697C194.587 30.7991 194.083 31.1397 193.504 31.3917C192.925 31.6437 192.3 31.7697 191.628 31.7697C190.928 31.7697 190.265 31.6391 189.64 31.3777C189.024 31.1071 188.487 30.7477 188.03 30.2997C187.582 29.8424 187.223 29.3057 186.952 28.6897C186.691 28.0737 186.56 27.4157 186.56 26.7157C186.56 26.0157 186.691 25.3577 186.952 24.7417C187.213 24.1257 187.568 23.5937 188.016 23.1457C188.473 22.6884 189.01 22.3291 189.626 22.0677C190.251 21.7971 190.914 21.6617 191.614 21.6617C192.37 21.6617 193.084 21.8064 193.756 22.0957C194.428 22.3757 195.002 22.7677 195.478 23.2717L194.75 24.0137C194.377 23.5844 193.91 23.2531 193.35 23.0197C192.79 22.7771 192.211 22.6557 191.614 22.6557C191.054 22.6557 190.531 22.7631 190.046 22.9777C189.561 23.1831 189.141 23.4677 188.786 23.8317C188.441 24.1864 188.165 24.6157 187.96 25.1197C187.755 25.6144 187.652 26.1464 187.652 26.7157C187.652 27.2851 187.755 27.8217 187.96 28.3257C188.165 28.8204 188.441 29.2497 188.786 29.6137C189.141 29.9684 189.561 30.2531 190.046 30.4677C190.531 30.6731 191.054 30.7757 191.614 30.7757C192.109 30.7757 192.571 30.6917 193 30.5237C193.439 30.3557 193.817 30.1271 194.134 29.8377C194.461 29.5391 194.727 29.1844 194.932 28.7737C195.137 28.3631 195.259 27.9197 195.296 27.4437H191.782V26.4917H196.388V26.9257Z" fill="#0C0D1F"/>
<path d="M109.697 30.0557C108.877 30.0557 108.167 29.7657 107.567 29.1857C106.987 28.5857 106.697 27.8757 106.697 27.0557C106.697 26.2157 106.987 25.4957 107.567 24.8957C108.167 24.2957 108.877 23.9957 109.697 23.9957C110.537 23.9957 111.257 24.2957 111.857 24.8957C112.457 25.4957 112.757 26.2157 112.757 27.0557C112.757 27.8757 112.457 28.5857 111.857 29.1857C111.277 29.7657 110.557 30.0557 109.697 30.0557Z" fill="#0C0D1F"/>
</svg>
