<svg width="241" height="220" viewBox="0 0 241 220" fill="none" xmlns="http://www.w3.org/2000/svg">
<path fill-rule="evenodd" clip-rule="evenodd" d="M171.632 73.6221C196.848 72.6391 222.391 84.1199 235.554 106.073C236.43 107.47 234.096 108.597 233.454 107.137C219.972 85.3958 193.954 75.4227 169.149 77.2369C154.942 78.2554 139.421 82.7841 126.307 90.2407C127.144 90.8608 127.952 91.5164 128.728 92.2097C136.386 99.0065 140.66 110.978 134.537 120.212C129.088 128.45 115.083 133.332 105.851 129.091C95.3451 124.312 99.471 109.965 104.808 102.949C108.619 97.9774 113.691 93.8578 119.229 90.3897C114.512 88.0708 109.254 86.6018 104.354 85.5616C94.9097 83.5736 85.0108 83.4018 75.4769 84.8268C56.7176 87.6569 39.3672 96.4479 26.2165 110.138C24.4538 111.991 21.9471 108.96 23.6671 107.182C41.6262 88.2489 68.2646 78.2871 94.2653 80.2318C103.857 80.9629 114.551 83.0432 123.092 88.1096C127.503 85.6519 132.083 83.5553 136.463 81.7276C147.617 76.9815 159.508 74.0466 171.632 73.6221ZM122.763 92.3657C118.921 94.7936 115.333 97.4871 112.103 100.43C107.469 104.684 103.084 110.566 103.002 117.052C102.828 125.068 109.187 127.255 116.071 126.478C127.869 125.074 137.429 115.546 132.4 103.338C130.417 98.5621 126.943 95.0268 122.763 92.3657Z" fill="white"/>
<path d="M39.3768 109.756C42.9235 108.196 46.4722 106.635 50.0261 105.077C51.88 104.266 53.1757 106.994 51.3219 107.804C48.9037 108.941 46.483 110.076 44.0611 111.212C33.42 116.202 22.7559 121.203 12.1826 126.387C10.7972 127.072 8.6755 125.947 8.97012 124.236C10.0947 117.659 11.5591 111.179 13.3319 104.679C13.6299 103.598 13.9194 102.485 14.213 101.357C15.613 95.9756 17.1082 90.2285 20.0725 85.803C21.1211 84.3295 23.8399 85.1072 23.6079 87.0522C23.104 90.9751 21.7031 94.8597 20.3107 98.7209C19.5116 100.937 18.7152 103.145 18.0927 105.349C16.6857 110.443 15.438 115.571 14.3154 120.71C22.689 117.098 31.0278 113.429 39.3768 109.756Z" fill="white"/>
</svg>
