<svg width="204" height="87" viewBox="0 0 204 87" fill="none" xmlns="http://www.w3.org/2000/svg">
<path fill-rule="evenodd" clip-rule="evenodd" d="M194.902 42.8872C172.062 13.3537 130.62 2.50058 94.6036 5.71366C76.3642 7.33154 57.5448 14.3107 48.1452 31.05C45.6872 35.4445 44.0327 40.3387 43.5504 45.3213C48.4187 44.118 53.4453 44.1033 58.1317 46.2779C65.217 49.5352 69.656 59.2338 65.3917 66.3207C60.9268 73.8108 50.5062 72.5498 45.1524 67.0588C40.9131 62.7729 38.8116 57.6454 38.2884 52.2369C34.0496 54.2949 30.1854 56.9524 27.5246 59.0937C20.2408 64.9122 14.3378 72.1072 9.12993 79.7671C9.31043 79.639 9.47093 79.5245 9.60051 79.4321C9.77229 79.3096 9.89025 79.2254 9.92749 79.2005C14.6328 76.5901 23.6735 72.4234 28.9612 75.4047C29.6435 75.8219 30.024 76.3402 29.9401 77.1692L29.872 78.1221C29.8352 79.3228 28.1859 79.7205 27.5647 78.792C25.1301 75.066 14.7001 81.6545 10.3865 84.3794C9.7195 84.8008 9.19863 85.1298 8.87631 85.3139L8.76644 85.3785C6.74235 86.5678 4.44976 87.915 2.30897 86.1458C0.430937 84.5103 0.795344 81.2875 1.07628 78.803C1.14462 78.1986 1.20802 77.6379 1.233 77.1543C1.2872 76.1813 1.33969 75.207 1.39223 74.2319C1.67516 68.9805 1.9594 63.7047 2.51919 58.4841C2.83186 55.4858 7.20183 56.1913 7.06718 59.1041C6.98831 62.5481 6.7366 66.0141 6.48634 69.4599C6.3696 71.0673 6.25319 72.6703 6.15478 74.2647C6.14321 74.5022 6.07815 74.9699 5.99597 75.5607L5.97147 75.737C12.348 66.6394 19.7311 58.1543 29.0855 52.0345C31.8568 50.2145 34.9665 48.4524 38.244 47.0913C39.1729 34.5766 47.2901 21.5223 56.112 14.4292C75.4749 -1.17999 104.252 -1.11101 127.582 2.66954C154.349 7.04592 180.403 19.1751 196.734 41.382C196.958 41.2189 197.2 41.0885 197.453 40.9902C197.847 40.6109 198.469 40.3264 199.045 40.4023C199.332 40.3514 199.637 40.3282 199.961 40.3361C203.989 40.3295 204.524 45.5495 203.049 48.3173C202.719 48.9244 202.296 49.4554 201.81 49.895C201.151 50.9635 200.191 51.8512 198.841 51.8719C197.963 51.8978 197.246 51.5696 196.685 51.0385C196.153 50.845 195.638 50.5473 195.159 50.1351C192.979 48.2364 192.504 44.6397 194.902 42.8872ZM44.1953 55.0307C43.8028 53.4146 43.5623 51.7793 43.4608 50.1393C49.6031 48.1782 55.8345 48.2426 59.9095 53.355C64.3261 58.9017 62.0408 68.193 53.711 66.5413C48.2869 65.4657 45.3886 59.9785 44.1953 55.0307Z" fill="#0C0D1F"/>
</svg>
