<svg width="221" height="195" viewBox="0 0 221 195" fill="none" xmlns="http://www.w3.org/2000/svg">
<path fill-rule="evenodd" clip-rule="evenodd" d="M173.276 35.1794C177.669 34.5875 182.949 35.3123 186.268 38.0366C186.551 38.0853 186.799 38.1816 186.926 38.3188C187.396 38.3465 187.821 38.4574 188.032 38.6633C190.005 40.4657 189.759 44.3642 189.591 47.039C189.574 47.3011 189.559 47.5515 189.546 47.7871C189.317 52.1494 187.538 56.2484 184.626 59.5167C178.455 66.409 170.575 62.5976 165.654 56.4667C160.339 49.7426 160.984 38.9766 170.011 35.9187C170.383 35.7943 170.771 35.6813 171.173 35.5803C171.398 35.402 171.639 35.2481 171.899 35.1234C172.234 34.951 172.845 35.0015 173.276 35.1794ZM186.503 45.359C186.428 48.1333 185.882 51.0416 185.385 52.4059C184.568 54.5952 183.26 56.8605 181.736 58.7064C181.287 59.3796 180.661 59.8791 180.034 60.3785L179.995 60.3773C180.514 59.1516 180.954 57.9002 181.394 56.6489L181.395 56.6477L181.395 56.6455C181.927 55.1323 182.46 53.6184 183.133 52.1507C184.192 49.8661 185.303 47.5983 186.503 45.359ZM186.146 41.9484C186.087 41.9912 186.038 42.0407 186 42.0972C184.175 45.2475 182.562 48.4656 181.055 51.7177C180.381 53.1868 179.849 54.7014 179.316 56.2159C178.833 57.5906 178.35 58.9653 177.76 60.306L176.339 60.2606C176.593 59.6162 176.974 58.9442 177.34 58.2979C177.674 57.7099 177.995 57.1432 178.198 56.6378C178.59 55.7762 178.946 54.9325 179.303 54.0889L179.308 54.079L179.309 54.0762C179.668 53.2281 180.027 52.3801 180.421 51.5141C181.99 48.0498 183.737 44.7153 185.537 41.3556C185.561 41.4047 185.584 41.4542 185.606 41.5041C185.688 41.6972 185.886 41.8449 186.146 41.9484ZM172.759 60.1464L174.078 60.1885C174.485 58.6814 175.389 56.9943 176.228 55.4298C176.754 54.4493 177.253 53.5169 177.589 52.7071C179.572 48.1861 181.914 43.78 184.258 39.4657C183.771 38.9386 183.218 38.4905 182.615 38.1175C178.313 43.8265 174.074 51.2766 172.835 58.2906C172.857 58.3637 172.851 58.4433 172.81 58.5285L172.708 58.8461C172.568 59.12 172.082 59.2593 171.608 59.2564C172 59.6475 172.397 59.9842 172.759 60.1464ZM180.883 37.2931C176.435 43.1464 171.961 50.9011 170.636 58.2041C170.417 57.9592 170.214 57.7331 170.036 57.5544C170.069 57.5128 170.104 57.4672 170.141 57.4164L170.178 57.3665L170.238 57.2833L170.24 57.2811C170.269 57.2406 170.3 57.1972 170.334 57.1508C170.539 56.8435 170.21 56.6083 169.753 56.4974C170.941 49.5436 174.422 42.8734 178.069 36.9856C178.136 36.886 178.146 36.7939 178.114 36.7112C179.073 36.7913 180.008 36.9826 180.883 37.2931ZM167.044 53.3953C167.301 53.8871 167.581 54.3663 167.881 54.8299C169.274 48.5003 172.41 42.4316 175.723 36.9909C175.729 36.9418 175.748 36.8902 175.784 36.8363C175.804 36.826 175.822 36.8151 175.838 36.8035L175.89 36.7189C174.522 36.8383 173.157 37.1643 171.891 37.6751C171.016 39.1607 170.455 41.3073 170.023 42.9621L170.023 42.9631C169.863 43.5745 169.721 44.1186 169.587 44.5375C169.43 45.0292 169.216 45.5886 168.988 46.1883L168.986 46.1931L168.984 46.1968L168.984 46.1977L168.983 46.2001C168.178 48.3096 167.184 50.9146 167.753 52.821C167.848 53.1526 167.492 53.3399 167.044 53.3953ZM168.851 39.4326C168.62 40.0957 168.425 40.7616 168.244 41.3796C168.129 41.7708 168.02 42.1428 167.911 42.4825C167.712 43.1049 167.449 43.8063 167.168 44.5546C166.592 46.0897 165.942 47.8224 165.619 49.4757C165.128 47.1155 165.289 44.6582 166.434 42.359C166.996 41.2326 167.832 40.25 168.851 39.4326Z" fill="#0C0D1F"/>
<path fill-rule="evenodd" clip-rule="evenodd" d="M163.674 76.1433C163.471 74.4334 162.393 72.9248 160.858 71.6675C160.814 71.4774 160.597 71.3349 160.317 71.2483C156.801 68.6681 151.387 67.2763 148.219 67.5678C144.254 67.9302 139.746 69.9864 137.253 73.039C133.824 77.1922 136.21 82.8603 138.44 87.1941C142.104 93.9725 150.123 100.63 157.687 95.5851C161.835 92.8298 163.508 88.6969 163.627 83.9491C163.638 83.3427 163.674 82.7126 163.711 82.0723C163.816 80.2645 163.925 78.3761 163.482 76.7148L163.539 76.5668C163.543 76.5539 163.547 76.5411 163.55 76.5285C163.643 76.4206 163.69 76.2921 163.674 76.1433ZM160.513 78.7479C160.326 77.4782 160.012 76.3323 159.543 75.4754C158.935 77.0179 158.279 78.545 157.622 80.0721C157.156 81.1567 156.69 82.2413 156.242 83.3314C156.224 83.3723 156.202 83.4234 156.175 83.484C156.154 83.5331 156.129 83.5885 156.101 83.6497L156.043 83.7791L155.936 84.0173C154.946 86.2143 152.213 92.2802 152.56 94.1611C153.967 94.1723 154.808 94.133 155.497 93.8357C155.153 93.7068 154.929 93.4932 155.059 93.2247C156.844 89.7776 158.106 85.9655 159.36 82.1777C159.74 81.0287 160.12 79.8816 160.513 78.7479ZM160.54 85.2983C159.933 87.0808 159.297 88.8482 158.578 90.5596C159.052 89.9065 159.529 89.2081 159.817 88.5639C160.124 87.7921 160.377 86.633 160.54 85.2983ZM155.311 80.5551C156.379 77.8982 157.45 75.2357 158.4 72.5081C157.722 71.9258 156.904 71.4373 156.006 71.0383C156.121 71.1344 156.165 71.2505 156.099 71.3791C152.62 78.0326 149.944 86.247 148.706 93.7115C148.81 93.801 148.867 93.907 148.852 94.0263C149.319 94.0719 149.869 94.0963 150.544 94.1193C151.743 89.4266 153.524 84.9985 155.311 80.5551ZM155.458 70.8093C154.892 70.6903 154.146 70.762 153.954 71.1579C150.448 77.6387 147.84 85.8646 146.573 93.2257C146.148 92.8951 145.713 92.4333 145.147 91.7824C145.423 91.541 145.333 91.3314 145.076 91.185C145.296 89.1036 146.04 86.9735 146.779 84.8566C147.239 83.5378 147.698 82.2239 148.027 80.9303C148.758 78.1004 149.667 75.3278 150.575 72.5552C150.875 71.6415 151.175 70.7279 151.468 69.8122C152.824 69.9893 154.203 70.3182 155.458 70.8093ZM141.564 86.9119C142.048 87.8527 142.63 88.7149 143.275 89.5487C143.617 87.8711 144.189 86.2361 144.757 84.6131C145.209 83.3206 145.658 82.0358 145.987 80.743C146.718 77.9129 147.627 75.14 148.536 72.3672L148.538 72.3605C148.833 71.4604 149.128 70.5602 149.417 69.6581C149.38 69.6574 149.343 69.6569 149.306 69.6564L149.223 69.6556L149.137 69.6552C149.108 69.7286 149.027 69.8047 148.879 69.8806C147.115 70.7892 146.278 73.0263 145.529 75.0297C145.27 75.7228 145.021 76.3878 144.748 76.9603C144.586 77.2869 144.424 77.6101 144.263 77.931C142.914 80.6252 141.648 83.1544 141.181 86.142C141.305 86.4005 141.433 86.6571 141.564 86.9119ZM146.082 69.9864C144.835 71.1738 144.179 72.8319 143.536 74.4575C143.396 74.8091 143.258 75.1591 143.114 75.5025C142.728 76.3745 142.315 77.2319 141.903 78.0863L141.902 78.0881C141.341 79.2525 140.783 80.4115 140.298 81.5949C140.273 81.5463 140.23 81.4957 140.164 81.4433C139.986 81.2697 141.373 76.9334 141.51 76.5062L141.51 76.505C141.983 74.7268 142.455 72.9485 143.306 71.2255C143.88 70.8868 144.491 70.5822 145.125 70.3109C145.408 70.185 145.729 70.0766 146.082 69.9864ZM140.172 81.9057C140.043 81.992 139.843 82.0579 139.618 82.0964C139.687 82.3309 139.76 82.5643 139.836 82.7965C139.942 82.4976 140.055 82.2008 140.172 81.9057ZM139.991 74.2107C139.192 75.4071 138.758 76.8058 138.852 78.4177C139.039 77.7635 139.21 77.1071 139.382 76.4524C139.578 75.7008 139.774 74.9515 139.991 74.2107Z" fill="#0C0D1F"/>
<path fill-rule="evenodd" clip-rule="evenodd" d="M160.319 26.9353C171.143 20.4953 182.416 14.9392 193.935 9.61359C193.73 9.18849 194.457 8.97793 195.121 9.06639C195.679 8.80926 196.238 8.5526 196.798 8.29637L197.364 8.03749C198.212 7.6327 199.058 7.22335 199.903 6.81418L199.906 6.81274L199.908 6.81213L199.91 6.81145C203.728 4.96325 207.538 3.11922 211.517 1.72078C211.884 1.59393 212.278 1.44431 212.693 1.2871C214.656 0.542691 217.067 -0.371701 219.017 0.157253C220.85 0.628246 221.07 1.39919 220.985 3.12295C220.913 4.49504 220.328 6.02611 219.762 7.50871C219.428 8.38273 219.101 9.24049 218.889 10.0383C218.415 11.5205 218.034 13.0328 217.654 14.5451C217.464 15.3013 217.274 16.0574 217.072 16.8098C213.237 31.0792 208.037 44.8546 202.006 58.3071C202.426 58.3939 202.779 58.57 202.922 58.8477C210.12 70.2612 216.534 83.7582 216.206 97.5442C216.11 103.9 213.505 110.788 211.258 116.732L211.099 117.152C208.715 123.508 205.667 130.118 201.976 135.821C201.529 136.501 201.005 137.439 200.414 138.499L200.413 138.5C197.401 143.898 192.639 152.432 187.306 145.941C183.918 141.773 181.061 136.511 178.418 131.642L178.412 131.632L177.902 130.693C177.716 130.35 177.53 130.01 177.345 129.672C174.883 125.142 172.77 120.529 171.138 115.73L170.732 116.498L170.732 116.499C168.425 120.863 166.119 125.226 163.536 129.445C163.33 129.816 162.752 129.97 162.145 129.967C160.629 132.59 159.497 134.1 156.34 132.974C152.057 131.441 148.365 127.384 144.896 123.571L144.895 123.57L144.894 123.569L144.893 123.568L144.887 123.56C144.167 122.769 143.457 121.989 142.753 121.244C141.902 123.967 140.661 126.533 139.424 129.091C138.889 130.197 138.355 131.301 137.854 132.415C137.612 132.93 137.353 133.603 137.066 134.353L137.065 134.355L137.065 134.356C136.048 137.003 134.672 140.588 132.41 141.408C130.767 142.02 129.38 140.97 128.098 140.001C127.934 139.876 127.772 139.754 127.611 139.636C125.485 138.078 123.436 136.458 121.388 134.838C119.34 133.218 117.292 131.598 115.165 130.041C113.552 128.859 111.941 127.668 110.328 126.474C106.556 123.684 102.77 120.883 98.8984 118.17C98.546 117.931 98.0485 117.65 97.4859 117.333C95.4473 116.185 92.5543 114.554 92.6143 112.652C92.7387 109.996 98.2904 106.778 100.947 105.238L100.95 105.236L100.952 105.235C101.284 105.042 101.57 104.876 101.795 104.741C106.218 102.028 110.367 99.115 114.306 95.7999C110.04 91.8868 105.778 88.1025 100.719 85.1348C99.783 84.5542 100.535 84.0936 101.477 83.9306C101.517 80.7766 104.134 77.7734 106.427 75.1427C107.149 74.3144 107.839 73.5229 108.406 72.7754C109.35 71.5512 110.313 70.3513 111.292 69.1697C111.096 69.1672 110.91 69.1428 110.751 69.0917C108.911 68.5623 106.93 68.37 104.951 68.1778C103.14 68.0019 101.33 67.8262 99.6292 67.3923C97.3735 66.7856 95.1178 66.1788 92.7902 65.4323C91.7052 65.0843 90.5861 64.7944 89.4639 64.5038C86.2089 63.6607 82.9265 62.8105 80.3651 60.5134C80.1873 60.3396 80.1493 60.094 80.217 59.8822C82.8177 53.0191 89.2954 47.4874 94.9844 42.6292L94.9858 42.6281L94.9924 42.6224L94.9956 42.6197C95.8597 41.8817 96.7056 41.1593 97.5169 40.4501L97.9395 40.0872C104.248 34.6697 110.897 28.9589 118.308 25.0558C124.593 21.8188 131.704 20.0136 138.699 20.3897C145.238 20.7263 151.04 23.3668 156.841 26.0073C157.475 26.2957 158.108 26.584 158.743 26.8693C159.238 26.7688 159.839 26.8078 160.319 26.9353ZM104.786 84.4548C104.726 81.6176 107.105 78.8321 109.168 76.4171C109.84 75.6308 110.478 74.8837 110.988 74.187C113.824 70.4273 116.838 66.8414 120.029 63.4292C126.514 56.2872 133.388 49.3868 140.833 43.2532C155.309 31.5535 171.545 23.1032 188.065 14.8605C190.323 13.7241 192.581 12.5876 194.847 11.4664C195.816 13.3553 196.873 15.1668 198.088 16.8731C198.306 17.3544 198.584 17.8828 198.928 18.4615C199.664 19.6557 200.997 21.3696 202.491 21.818C203.555 22.6902 204.714 23.4459 205.869 24.1987C207.55 25.295 209.223 26.3854 210.578 27.8214C205.216 44.5368 197.968 60.6292 189.99 76.2956C185.494 85.2428 180.745 93.5249 175.47 101.989C173.881 104.525 172.401 107.116 170.97 109.731C170.164 109.763 169.434 110.087 169.637 110.741C169.662 110.838 169.688 110.936 169.714 111.033C169.738 111.123 169.762 111.213 169.786 111.303L169.829 111.459L169.859 111.571L169.898 111.711C169.137 113.127 168.386 114.548 167.635 115.969L167.634 115.971C165.375 120.245 163.117 124.518 160.598 128.656C159.981 128.661 159.388 128.834 159.176 129.215C157.518 132.12 156.598 131.266 154.426 129.247L154.208 129.045C154.114 128.958 154.018 128.869 153.919 128.778C153.81 128.678 153.697 128.575 153.582 128.471C152.462 127.411 151.395 126.281 150.327 125.151C149.26 124.021 148.193 122.89 147.073 121.831C145.876 120.678 144.652 119.544 143.411 118.423C143.353 118.224 143.165 118.074 142.908 117.97C140.543 115.85 138.122 113.777 135.715 111.717L135.711 111.714L135.693 111.698C134.353 110.551 133.018 109.408 131.7 108.262C129.3 106.097 126.936 103.84 124.567 101.578C118.219 95.5179 111.825 89.4131 104.55 84.8872C104.699 84.7753 104.788 84.6312 104.786 84.4548ZM207.036 23.3966L207.168 23.4819C207.155 23.4573 207.142 23.4326 207.129 23.4079L207.097 23.4041C207.076 23.4017 207.056 23.3992 207.036 23.3966ZM216.786 2.49639C216.689 2.45716 216.578 2.41635 216.451 2.37266C216.511 2.4189 216.565 2.46799 216.616 2.51977C216.672 2.51122 216.729 2.50343 216.786 2.49639ZM197.852 9.99259C197.421 10.2017 196.991 10.4116 196.562 10.6221C196.743 10.9765 196.927 11.3289 197.113 11.679C197.127 11.1062 197.361 10.5419 197.893 10.0115C197.879 10.0053 197.865 9.99902 197.852 9.99259ZM199.358 15.4954C199.502 15.7134 199.647 15.9299 199.794 16.1448C199.732 15.9592 199.674 15.775 199.621 15.5929C199.524 15.5649 199.435 15.5321 199.358 15.4954ZM214.175 6.08884L214.186 6.07253C214.228 5.97157 214.268 5.86972 214.306 5.76687C214.441 5.42627 214.542 5.13543 214.614 4.8887C214.555 4.91424 214.495 4.93981 214.435 4.96554C214.201 5.06614 213.959 5.16965 213.712 5.28543C213.561 5.60809 213.4 5.92349 213.23 6.23263C213.361 6.17074 213.766 6.09462 214.175 6.08884ZM207.925 6.63551C207.565 6.72492 207.202 6.80484 206.836 6.873C206.729 6.90342 206.515 6.90816 206.275 6.88408C206.137 6.98125 205.999 7.07936 205.861 7.17847L205.782 7.23527L205.877 7.26598C206.198 7.24706 206.605 7.26455 206.896 7.35439C207.234 7.105 207.576 6.86415 207.925 6.63551ZM201.707 16.9462L201.7 16.9498L201.729 17.0381C201.738 17.0165 201.746 16.9948 201.753 16.973L201.707 16.9462ZM201.994 17.1071L201.758 17.1237C201.991 17.8087 202.196 18.334 202.302 18.4927L202.347 18.5701C202.391 18.6435 202.438 18.7234 202.489 18.8086C202.537 18.8903 202.589 18.9767 202.645 19.0668C202.698 18.827 202.736 18.5309 202.754 18.1711C202.755 18.1668 202.755 18.1622 202.756 18.1574C202.756 18.1539 202.756 18.1503 202.756 18.1465C202.757 18.1331 202.757 18.1178 202.756 18.1008L202.75 18.0892C202.593 18.0116 202.44 17.9123 202.293 17.7897C202.187 17.7557 202.149 17.51 202.183 17.4042C202.214 17.3625 202.244 17.3209 202.275 17.2794L202.255 17.2449C202.17 17.2013 202.083 17.1554 201.994 17.1071ZM209.883 16.6238C209.955 16.7921 210.018 16.9722 210.07 17.1615C210.222 16.7222 210.341 16.2737 210.427 15.82L210.352 15.9384C210.277 16.0406 210.147 16.1138 209.987 16.1612C209.95 16.3134 209.915 16.4679 209.883 16.6238ZM140.15 118.677C133.617 112.846 127.05 107.121 120.482 101.397L120.481 101.395C119.027 100.128 117.614 98.8396 116.215 97.554C113.445 99.878 110.537 102.054 107.513 104.007C106.729 104.501 105.88 104.982 105.012 105.474C102.483 106.908 99.7882 108.437 98.036 110.656C97.0922 111.054 96.7493 111.761 96.7957 112.709C96.2792 113.594 96.567 114.154 97.553 114.353C98.1021 115.076 99.3117 115.854 100.36 116.528C100.88 116.862 101.36 117.17 101.7 117.434C103.348 118.663 105.005 119.866 106.662 121.068C108.319 122.271 109.975 123.474 111.624 124.703C115.31 127.402 119.101 130.136 122.893 132.87C123.381 133.183 124.44 134.102 125.67 135.169C127.58 136.827 129.905 138.843 131.15 139.513C131.074 138.66 132.771 136.271 132.771 136.271C133.357 135.156 133.867 133.966 134.371 132.79L134.372 132.788L134.372 132.787L134.374 132.782C134.637 132.17 134.898 131.562 135.167 130.969C135.444 130.407 135.725 129.849 136.005 129.291C137.667 125.987 139.308 122.723 140.091 119.032C140.066 118.923 140.082 118.804 140.15 118.677ZM212.626 91.9603C211.631 80.9264 206.675 70.1904 200.897 60.7583C198.582 65.8242 196.153 70.8455 193.639 75.8314C188.935 85.0623 184.05 93.7679 178.568 102.516C176.643 105.588 174.879 108.74 173.168 111.918C176.117 122.053 181.251 131.143 186.989 140.003C187.149 140.262 187.327 140.588 187.526 140.951C188.665 143.034 190.453 146.301 192.947 144.715C193.609 144.316 194.48 142.485 195.187 140.998C195.56 140.213 195.887 139.524 196.114 139.194C199.115 134.553 201.731 130.023 204.026 125.039L204.133 124.803C208.826 114.482 213.742 103.671 212.626 91.9603ZM157.644 28.5509C153.33 31.1963 149.091 33.9928 144.94 36.9826C135.535 43.7717 127.162 51.709 119.183 60.2395C116.893 62.7167 114.642 65.2066 112.463 67.7731L112.457 67.7711C110.024 66.9908 107.507 66.6841 104.984 66.3768C102.79 66.1094 100.593 65.8417 98.4445 65.2613C97.2341 64.9145 95.9403 64.5993 94.6269 64.2794L94.6258 64.2792L94.625 64.279C92.2284 63.6953 89.766 63.0956 87.6231 62.2575C83.8101 60.6844 83.404 59.0367 85.546 55.9882C87.1334 53.579 89.2879 51.5852 91.4085 49.6972C94.7778 46.4588 98.1471 43.2203 101.66 40.2614C101.836 40.1136 102.012 39.9653 102.188 39.8167C102.47 39.5783 102.754 39.3389 103.038 39.0988L103.046 39.0914C109.671 33.4944 116.73 27.5297 124.834 24.3474C136.678 19.657 146.777 23.6748 157.644 28.5509Z" fill="#0C0D1F"/>
<path fill-rule="evenodd" clip-rule="evenodd" d="M111.469 136.632C109.83 133.966 106.799 129.038 103.588 128.771C96.1868 123.518 82.8446 131.639 77.9038 137.117C77.3832 137.651 78.7586 138.092 78.9702 138.16C79.9942 138.403 80.5513 138.374 81.3184 138.333C81.607 138.318 81.9253 138.301 82.3094 138.297C81.8523 138.267 88.2811 138.228 88.6027 138.681C89.5124 140.075 86.0881 144.821 83.7903 148.005C82.9245 149.205 82.2186 150.183 81.9649 150.677C80.317 153.883 79.7789 157.076 79.195 160.541L79.1948 160.542C79.1218 160.976 79.0479 161.414 78.9711 161.857C78.8931 162.362 78.7215 163.097 78.5221 163.952C77.8875 166.671 76.9717 170.595 77.8989 172.136C79.6101 175.03 83.9361 172.053 86.2203 170.48C86.6641 170.175 87.0308 169.923 87.2863 169.777C88.0727 169.316 88.8748 168.855 89.6838 168.389C92.7152 166.647 95.8448 164.847 98.6212 162.789C101.082 161.042 102.966 158.899 104.885 156.665C105.344 157.906 105.285 159.342 105.228 160.746C105.15 162.659 105.074 164.511 106.315 165.724C106.848 166.245 108.219 166.335 108.918 165.975C111.991 164.392 113.726 159.696 114.391 156.524C115.721 150.18 115.032 142.489 111.592 136.833L111.469 136.632ZM94.9047 136.85C95.8408 134.733 98.0662 131.179 100.684 129.581C95.8751 126.346 85.6529 133.005 81.5687 136.864C82.4643 136.897 83.3948 136.851 84.3327 136.805C86.8938 136.679 89.5096 136.551 91.6161 138.013C91.6581 138.054 91.7118 138.099 91.7686 138.146C91.9522 138.299 92.1672 138.479 92.1154 138.64C91.7771 141.639 89.7038 144.448 87.6563 147.222C86.2417 149.139 84.8394 151.039 84.0299 152.973C82.6724 156.228 82.1538 160.133 81.6853 163.66L81.6849 163.664C81.6348 164.041 81.5853 164.413 81.5354 164.78C81.5025 165.006 81.439 165.338 81.3621 165.74C81.0681 167.275 80.5799 169.825 80.8718 171.322C83.3551 170.252 85.7841 168.475 88.1128 166.771C89.406 165.824 90.6683 164.9 91.8918 164.133C96.5646 161.196 99.5868 158.313 103.333 154.262C104.061 153.445 105.644 153.602 106.389 154.191C107.883 155.326 108.085 156.661 108.355 158.44L108.378 158.595C108.389 158.666 108.4 158.737 108.411 158.809C108.457 159.202 108.451 159.822 108.444 160.527C108.436 161.357 108.426 162.305 108.5 163.138C111.539 159.287 111.595 151.646 111.371 147.734C111.2 144.692 110.418 141.9 109.178 139.335C106.672 146.783 94.1792 155.931 90.0442 150.583C89.8665 150.409 89.7945 150.27 89.8962 149.952C91.1059 147.231 93.4532 145.23 95.7684 143.257C97.7482 141.569 99.7045 139.902 100.906 137.821C99.2827 138.071 97.6822 138.154 95.9711 137.893C95.514 137.863 94.5957 137.451 94.9047 136.85ZM102.975 131.013C103.921 131.93 104.813 132.886 105.637 133.883C105.456 134.064 105.429 134.299 105.663 134.581C109.975 139.699 94.9069 151.793 93.3708 149.666C92.9486 149.11 95.7536 146.378 98.6837 143.523C101.45 140.828 104.328 138.025 104.707 136.842C105.079 135.678 102.972 135.702 102.341 135.85C102.278 135.86 102.16 135.88 101.998 135.907L101.997 135.907L101.996 135.907L101.993 135.908C101.256 136.032 99.6358 136.305 98.3389 136.443C99.3567 134.427 101.033 132.076 102.975 131.013Z" fill="#0C0D1F"/>
<path d="M74.1572 114.554C63.7956 117.153 55.5048 125.682 48.0427 133.358C46.8271 134.609 45.6335 135.837 44.4565 137.013C34.5263 146.902 24.8119 157.21 15.4868 167.76C15.3797 167.886 15.2501 168.038 15.1004 168.213C11.326 172.63 -5.27465 192.058 1.68589 194.852C2.3207 195.055 3.69193 195.145 4.14064 194.472C4.24435 194.33 4.31314 194.206 4.38193 194.082C4.45073 193.958 4.51952 193.835 4.62323 193.693C4.9711 193.04 4.00133 192.626 3.04361 192.608C3.2696 188.114 17.1582 170.226 18.9699 168.177C27.8082 158.055 37.1078 148.313 46.5512 138.852C47.7832 137.611 49.0493 136.29 50.3517 134.93L50.3525 134.929C57.6011 127.362 65.9751 118.62 75.8626 116.151C77.8222 115.496 75.3127 114.224 74.1572 114.554Z" fill="#0C0D1F"/>
<path d="M48.4084 161.226C51.8617 158.107 55.3027 154.999 58.6155 151.826C59.4154 151.149 62.4795 151.781 61.544 152.882C58.4841 155.777 55.324 158.627 52.151 161.488C42.4773 170.211 32.6838 179.042 25.2454 189.604C25.2589 189.697 25.2458 189.797 25.2009 189.903C24.7563 190.928 24.2654 191.004 23.1777 191.122C22.7925 191.232 20.5749 190.871 21.1972 190.02C28.5638 179.151 38.5364 170.143 48.4084 161.226Z" fill="#0C0D1F"/>
</svg>
