<svg width="118" height="116" viewBox="0 0 118 116" fill="none" xmlns="http://www.w3.org/2000/svg">
<g clip-path="url(#clip0)">
<path d="M20.5041 37.8385C25.3088 32.7996 30.9711 28.8145 35.4754 23.3546C40.5746 17.1737 45.6739 10.9927 50.7731 4.81173C51.368 4.09062 48.2022 2.17134 47.4373 3.09849C42.763 8.76437 38.0037 14.5333 33.3294 20.1992C28.5701 25.9681 22.7813 30.3682 17.5082 35.7132C16.5299 36.6374 19.9092 38.5596 20.5041 37.8385Z" fill="white"/>
<path d="M58.6799 73.8346C61.5209 69.9457 70.7253 68.3634 75.2181 66.7029C79.5166 65.0552 83.7301 63.5106 87.9193 61.7727C91.1857 60.4855 94.974 57.8975 98.5076 57.177C97.6575 56.6488 96.8074 56.1206 95.848 55.5022C95.8966 55.8886 95.8116 55.9916 95.7509 56.2878C95.399 57.3824 98.3986 58.6452 98.6656 57.6535C98.7263 57.3573 98.8112 57.2543 98.8719 56.9581C99.2239 55.8635 96.9894 55.2319 96.2122 55.2833C92.29 56.0295 88.5017 58.6174 84.8711 60.1236C79.6497 62.2218 74.4041 64.1269 69.0734 66.135C64.8599 67.6796 58.3026 68.5026 55.5467 72.2885C55.1704 73.1899 57.915 74.7617 58.6799 73.8346Z" fill="white"/>
<path d="M53.5609 45.2001C51.6893 46.9454 49.8176 48.6908 47.8175 50.3302C46.0724 51.6606 44.1988 52.885 42.7541 54.6362C42.1591 55.3574 45.4533 57.3825 46.0898 56.3494C47.4911 54.3891 49.7915 53.1706 51.6216 51.7373C53.2383 50.3009 54.94 48.7616 56.5567 47.3253C57.535 46.4011 54.3693 44.4819 53.5609 45.2001Z" fill="white"/>
<path d="M62.1488 97.5152C66.1992 97.221 70.2979 97.1398 74.5299 97.1685C78.2403 97.2864 82.2425 96.7792 85.8795 97.5291C85.0799 96.8694 84.2802 96.2097 83.4806 95.55C83.3106 95.756 83.3589 95.969 83.1889 96.175C82.7756 97.219 86.2175 99.0199 86.6309 97.9758C86.8009 97.7698 86.7526 97.5568 86.9225 97.3508C87.3842 96.5197 85.0934 95.4955 84.5236 95.3717C80.4017 94.395 76.3996 94.9022 72.3859 94.8803C68.0207 94.7417 63.6187 94.919 59.3501 95.2062C57.9555 95.2676 61.1908 97.5904 62.1488 97.5152Z" fill="white"/>
</g>
<defs>
<clipPath id="clip0">
<rect x="46.4031" y="0.687012" width="92.816" height="72.9173" transform="rotate(39.5223 46.4031 0.687012)" fill="white"/>
</clipPath>
</defs>
</svg>
