<svg width="147" height="150" viewBox="0 0 147 150" fill="none" xmlns="http://www.w3.org/2000/svg">
<path d="M14.3813 69.3915C9.07721 74.3926 9.08129 84.8595 9.84522 91.547C10.7549 99.4715 13.712 107.179 18.2792 113.721C27.1073 126.455 42.5041 135.51 57.9333 137.169C58.9941 137.274 59.3329 135.75 58.2923 135.511C43.7607 132.468 30.1953 126.478 20.9772 114.321C16.4828 108.397 13.3273 101.46 11.9115 94.15C10.4593 86.5305 10.2595 76.4484 14.9185 69.8589C15.1142 69.4742 14.7309 69.0851 14.3813 69.3915Z" fill="white"/>
<path d="M17.0224 57.2418C16.86 57.7421 16.6965 58.2456 16.5015 58.7472C16.403 59.0361 15.9792 58.9171 15.9806 58.724C15.6755 55.4194 18.5098 50.3228 21.6059 49.187C22.1673 48.9401 22.606 49.6965 22.2362 50.138C21.7592 50.6681 21.2301 51.1276 20.7018 51.5864C19.8729 52.3064 19.046 53.0245 18.4261 54.0107C17.7398 55.0316 17.3838 56.1285 17.0224 57.2418Z" fill="white"/>
<path fill-rule="evenodd" clip-rule="evenodd" d="M75.5587 144.986C82.4699 142.351 90.2663 139.239 95.8331 134.063C99.5763 131.391 103.027 128.379 106.214 124.999C111.05 128.55 115.895 132.083 120.741 135.616C125.81 139.313 130.88 143.01 135.939 146.726C136.784 147.351 137.775 146.45 137.298 145.578C135.418 141.868 133.509 138.218 131.583 134.536L131.152 133.712C131.017 133.454 130.882 133.196 130.747 132.938C130.051 131.607 129.279 130.256 128.497 128.889C126.798 125.917 125.057 122.872 123.968 119.795C122.692 116.187 125.255 113.834 127.699 111.589C128.337 111.003 128.967 110.424 129.519 109.832C131.852 107.339 133.936 104.67 135.789 101.884C143.359 90.2369 146.759 76.0294 145.601 62.213C143.176 33.6525 120.105 1.40517 89.2247 1.17672C74.1708 1.06535 59.38 7.48326 46.6461 15.0944C33.6409 22.858 22.1041 33.1623 13.7161 45.846C-2.25959 69.9252 -5.29888 104.374 13.4519 127.88C22.5593 139.302 36.0693 147.687 50.825 149.051C59.2927 149.829 67.6821 147.998 75.5587 144.986ZM97.4891 130.529C97.3225 130.723 97.1527 130.915 96.9799 131.103C94.673 132.886 92.2511 134.521 89.711 136.014C89.3263 136.248 89.2675 136.639 89.3966 136.971C85.2528 139.352 80.6515 141.125 76.3995 142.764L76.0364 142.904C68.5661 145.784 60.6775 147.773 52.5742 147.326C39.4934 146.573 27.1481 139.993 18.1999 130.638C-2.2824 109.108 -1.48487 75.0679 12.9887 50.514C20.6452 37.5546 31.7406 26.8801 44.3044 18.7463C56.4998 10.8608 70.7521 4.16855 85.389 3.19538C117.154 1.01642 141.497 33.6207 143.744 62.8172C144.949 78.1596 140.361 94.0384 130.492 105.919C129.575 107.023 128.475 108.079 127.369 109.138C123.803 112.558 120.193 116.02 122.587 121.271C125.329 127.237 128.49 133.067 131.631 138.861L131.633 138.865C132.392 140.265 133.151 141.663 133.901 143.061C124.808 136.469 115.708 129.838 106.669 123.239C106.324 122.966 105.803 122.943 105.472 123.308C103.119 125.862 100.614 128.202 97.9519 130.338C97.7965 130.324 97.6317 130.378 97.4891 130.529Z" fill="white"/>
<path d="M14.3813 69.3915C9.07721 74.3926 9.08129 84.8595 9.84522 91.547C10.7549 99.4715 13.712 107.179 18.2792 113.721C27.1073 126.455 42.5041 135.51 57.9333 137.169C58.9941 137.274 59.3329 135.75 58.2923 135.511C43.7607 132.468 30.1953 126.478 20.9772 114.321C16.4828 108.397 13.3273 101.46 11.9115 94.15C10.4593 86.5305 10.2595 76.4484 14.9185 69.8589C15.1142 69.4742 14.7309 69.0851 14.3813 69.3915Z" stroke="white"/>
<path d="M17.0224 57.2418C16.86 57.7421 16.6965 58.2456 16.5015 58.7472C16.403 59.0361 15.9792 58.9171 15.9806 58.724C15.6755 55.4194 18.5098 50.3228 21.6059 49.187C22.1673 48.9401 22.606 49.6965 22.2362 50.138C21.7592 50.6681 21.2301 51.1276 20.7018 51.5864C19.8729 52.3064 19.046 53.0245 18.4261 54.0107C17.7398 55.0316 17.3838 56.1285 17.0224 57.2418Z" stroke="white"/>
<path fill-rule="evenodd" clip-rule="evenodd" d="M75.5587 144.986C82.4699 142.351 90.2663 139.239 95.8331 134.063C99.5763 131.391 103.027 128.379 106.214 124.999C111.05 128.55 115.895 132.083 120.741 135.616C125.81 139.313 130.88 143.01 135.939 146.726C136.784 147.351 137.775 146.45 137.298 145.578C135.418 141.868 133.509 138.218 131.583 134.536L131.152 133.712C131.017 133.454 130.882 133.196 130.747 132.938C130.051 131.607 129.279 130.256 128.497 128.889C126.798 125.917 125.057 122.872 123.968 119.795C122.692 116.187 125.255 113.834 127.699 111.589C128.337 111.003 128.967 110.424 129.519 109.832C131.852 107.339 133.936 104.67 135.789 101.884C143.359 90.2369 146.759 76.0294 145.601 62.213C143.176 33.6525 120.105 1.40517 89.2247 1.17672C74.1708 1.06535 59.38 7.48326 46.6461 15.0944C33.6409 22.858 22.1041 33.1623 13.7161 45.846C-2.25959 69.9252 -5.29888 104.374 13.4519 127.88C22.5593 139.302 36.0693 147.687 50.825 149.051C59.2927 149.829 67.6821 147.998 75.5587 144.986ZM97.4891 130.529C97.3225 130.723 97.1527 130.915 96.9799 131.103C94.673 132.886 92.2511 134.521 89.711 136.014C89.3263 136.248 89.2675 136.639 89.3966 136.971C85.2528 139.352 80.6515 141.125 76.3995 142.764L76.0364 142.904C68.5661 145.784 60.6775 147.773 52.5742 147.326C39.4934 146.573 27.1481 139.993 18.1999 130.638C-2.2824 109.108 -1.48487 75.0679 12.9887 50.514C20.6452 37.5546 31.7406 26.8801 44.3044 18.7463C56.4998 10.8608 70.7521 4.16855 85.389 3.19538C117.154 1.01642 141.497 33.6207 143.744 62.8172C144.949 78.1596 140.361 94.0384 130.492 105.919C129.575 107.023 128.475 108.079 127.369 109.138C123.803 112.558 120.193 116.02 122.587 121.271C125.329 127.237 128.49 133.067 131.631 138.861L131.633 138.865C132.392 140.265 133.151 141.663 133.901 143.061C124.808 136.469 115.708 129.838 106.669 123.239C106.324 122.966 105.803 122.943 105.472 123.308C103.119 125.862 100.614 128.202 97.9519 130.338C97.7965 130.324 97.6317 130.378 97.4891 130.529Z" stroke="white"/>
</svg>
