<svg width="192" height="131" viewBox="0 0 192 131" fill="none" xmlns="http://www.w3.org/2000/svg">
<g clip-path="url(#clip0)">
<path d="M3.05001 97.4999C3.15001 97.9999 3.35001 98.5999 3.45001 99.0999C2.85001 99.0999 2.15001 99.1999 1.55001 99.1999C3.85001 100.6 5.45001 106 6.85001 108.4C8.55001 111.3 10.25 114.2 12.05 117C14.25 120.5 18.15 129.5 22.85 130.2C28.15 130.9 31.75 122.8 34.35 119.4C36.75 116.2 39.05 112.9 41.45 109.7C42.75 107.9 44.05 106.2 45.35 104.4C45.75 103.8 46.25 103.2 46.65 102.6C48.65 101 48.35 100.3 45.95 100.5C45.45 99.4999 44.85 98.3999 44.35 97.3999C44.35 97.6999 44.35 97.9999 44.35 98.2999C45.05 97.2999 45.65 96.2999 46.35 95.2999C46.95 95.4999 47.55 95.5999 48.15 95.6999C46.45 93.8999 43.05 94.8999 42.95 97.4999C42.85 99.5999 43.45 100.6 45.15 101.8C46.15 102.5 47.65 102.6 48.75 102C49.05 101.9 49.25 101.7 49.55 101.6C50.55 101 51.55 99.7999 51.55 98.5999C51.35 93.9999 46.85 91.6999 43.35 95.0999C40.35 97.9999 38.15 102.4 35.65 105.8C32.85 109.7 30.15 113.5 27.35 117.4C26.15 119.1 25.05 121.3 23.55 122.7C22.55 123.6 22.65 123.9 23.95 123.5C23.15 122.5 22.25 121.4 21.45 120.4C18.95 117.2 16.55 114 14.15 110.8C11.55 107.2 8.95001 103.4 6.55001 99.6999C5.45001 97.9999 4.75001 96.4999 2.55001 96.3999C1.85001 96.3999 1.15001 96.7999 0.950006 97.4999C0.650006 98.3999 0.850006 98.8999 1.35001 99.6999C1.75001 100.2 2.45001 100.2 2.95001 99.9999C3.05001 99.9999 3.15001 99.8999 3.25001 99.8999C4.15001 99.3999 4.05001 97.6999 3.05001 97.4999Z" fill="white"/>
<path d="M25.05 127.1C25.45 114.4 28.85 102.8 35.15 91.8C36.85 88.9 32.45 85.9 30.75 88.9C24.05 100.4 20.95 113.7 21.55 127C21.65 129.2 25.05 129.4 25.05 127.1Z" fill="white"/>
<path d="M41.55 76.8999C44.65 72.1999 48.05 67.6999 51.75 63.4999C54.85 59.9999 58.85 56.9999 61.25 53.0999C62.35 51.2999 60.45 48.7999 58.45 49.8999C54.35 52.2999 51.25 56.7999 48.35 60.4999C44.85 65.0999 41.75 69.9999 38.95 75.0999C37.95 76.8999 40.35 78.5999 41.55 76.8999Z" fill="white"/>
<path d="M69.75 42.0001C78.15 33.0001 87.45 25.9001 98.15 19.7001C100.95 18.1001 98.75 13.7001 95.85 15.2001C84.75 21.2001 75.15 30.1001 67.65 40.1001C66.65 41.4001 68.65 43.1001 69.75 42.0001Z" fill="white"/>
<path d="M113.45 12.6999C117.45 12.3999 121.25 11.1999 125.15 10.2999C128.15 9.59989 133.95 7.29989 136.65 9.09989C138.05 9.99989 139.85 9.39989 140.35 7.79989C140.45 7.59989 140.45 7.39989 140.55 7.19989C140.95 5.89989 140.35 4.59989 139.35 3.79989C136.15 1.19989 131.15 3.59989 127.85 4.59989C122.85 6.09989 117.35 7.59989 112.95 10.4999C112.15 10.9999 112.05 12.7999 113.45 12.6999Z" fill="white"/>
<path d="M157.85 4.09996C162.85 4.79996 167.95 5.49996 172.95 6.09996C176.95 6.59996 183.25 6.19996 186.65 8.19996C188.25 9.09996 190.05 8.49996 190.75 6.79996C190.85 6.59996 190.95 6.39996 191.05 6.19996C191.65 4.79996 190.85 3.29996 189.75 2.39996C186.45 -0.100038 180.45 0.799962 176.55 0.699962C170.45 0.499962 164.25 0.299962 158.15 0.0999621C155.45 -0.100038 155.25 3.79996 157.85 4.09996Z" fill="white"/>
</g>
<defs>
<clipPath id="clip0">
<rect x="0.75" width="190.5" height="130.2" fill="white"/>
</clipPath>
</defs>
</svg>
