<svg width="213" height="70" viewBox="0 0 213 70" fill="none" xmlns="http://www.w3.org/2000/svg">
<path d="M195.67 27.8529C191.515 25.0068 187.319 22.0258 183.21 19.0911C181.044 17.6218 183.027 14.2573 185.328 15.6842C190.642 18.6848 196.046 21.7317 201.36 24.7324C202.113 25.1504 202.979 25.5725 203.891 26.0169C207.11 27.5857 210.897 29.4316 212.275 32.3488C212.833 33.6557 212.848 35.3556 211.668 36.319L211.125 36.7119C209.717 37.8949 207.844 37.5937 206.842 36.0554C205.35 33.6646 201.98 31.6745 198.968 29.8963C197.763 29.1854 196.617 28.5082 195.67 27.8529Z" fill="#0C0D1F"/>
<path d="M139.872 6.16446C142.617 7.34575 145.495 8.03273 148.387 8.72284C149.376 8.95898 150.367 9.19543 151.354 9.45223C151.948 9.60511 152.669 9.75312 153.456 9.91457C156.624 10.5644 160.854 11.4322 162.104 13.7111C162.928 15.157 164.801 15.4582 165.985 14.2713C166.076 14.2058 166.144 14.1288 166.212 14.0517C166.281 13.9746 166.349 13.8975 166.44 13.832C167.396 12.8647 167.466 11.4346 166.95 10.2627C165.574 7.07247 161.421 6.43798 158.121 5.93371C157.505 5.83958 156.919 5.74995 156.386 5.64915C156.141 5.6021 155.895 5.55454 155.648 5.5067L155.158 5.41143C150.378 4.48272 145.274 3.49104 140.447 3.98286C139.506 4.05584 138.585 5.60515 139.872 6.16446Z" fill="#0C0D1F"/>
<path d="M123.069 5.28814C110.715 5.83168 99.1849 7.82102 87.5732 11.9111C86.089 12.3771 85.1029 9.9445 86.5911 9.25492C97.8678 3.8618 110.497 0.415744 123.113 0.234599C126.378 0.247182 126.292 5.16572 123.069 5.28814Z" fill="#0C0D1F"/>
<path d="M46.4224 29.7959C51.3457 27.0644 56.4424 24.6491 61.6662 22.6385C63.2321 22.0405 64.871 21.5533 66.5103 21.0658L66.5162 21.064C69.447 20.1925 72.3801 19.3204 74.9009 17.8165C76.7091 16.73 76.1819 13.6345 73.8999 13.6839C69.8046 13.8823 65.6456 15.8119 61.8298 17.5823L61.4798 17.7446C61.2316 17.8597 60.9849 17.9738 60.7398 18.0865C60.5563 18.171 60.3735 18.2546 60.1917 18.3372L60.0408 18.4055C54.8092 20.8632 49.7933 23.772 44.9507 26.9969C43.2312 28.1297 44.5718 30.7474 46.4224 29.7959Z" fill="#0C0D1F"/>
<path d="M12.2597 60.7275C17.9888 52.4138 25.1608 45.6065 33.8529 40.0417C36.702 38.2579 34.1902 33.562 31.2947 35.4346C21.8626 41.3752 14.0846 49.6039 8.50227 59.2103L8.47134 59.053C7.73633 55.0593 7.09005 51.1119 6.44366 47.1645C5.80514 42.7699 5.25909 38.198 4.84423 33.8074L4.83005 33.6521C4.81638 33.4976 4.80404 33.3453 4.79177 33.1953C4.65014 31.456 4.53329 30.0235 2.82582 29.0308C2.20525 28.7068 1.39966 28.7374 0.898316 29.2653C0.215881 29.9243 0.161707 30.4601 0.234662 31.4006C0.328426 31.8788 0.710078 32.1807 1.12333 32.3215C1.50614 34.0056 1.34635 36.3453 1.20376 38.433C1.12026 39.6552 1.04264 40.7911 1.08338 41.6583L1.08395 41.6683C1.24856 45.0225 1.41317 48.3767 1.71254 51.6885C1.77773 52.502 1.80212 53.5361 1.82952 54.694L1.82996 54.7089L1.83019 54.7196L1.8303 54.7225C1.94102 59.4272 2.09913 66.1488 5.17656 68.3882C8.61169 70.8019 13.6294 67.9195 17.5039 65.6938C18.563 65.0853 19.5367 64.526 20.3693 64.1372C22.1742 63.274 23.9685 62.3771 25.7629 61.4802C27.5559 60.5838 29.3489 59.6875 31.1526 58.8249C32.1404 58.3305 33.1169 57.8579 34.0932 57.3854L34.1053 57.3796L34.1125 57.3761C35.0921 56.9021 36.0716 56.428 37.0628 55.9318C37.2652 55.8209 37.4766 55.7147 37.6914 55.6101L37.8252 55.5453C37.9017 55.5084 37.9786 55.4716 38.0555 55.4349C38.3938 55.2731 38.7321 55.1113 39.0483 54.9379C39.0873 54.9303 39.1257 54.9226 39.1635 54.9148C39.2366 54.8998 39.3075 54.8846 39.3761 54.8691C39.9246 55.1986 40.5598 55.3894 41.1875 55.378C41.2915 55.3947 41.3908 55.3965 41.4884 55.3933C41.5376 55.3917 41.5863 55.3888 41.6351 55.3859C41.6919 55.3825 41.7488 55.3791 41.8062 55.3778C41.8373 55.377 41.8685 55.3769 41.9001 55.3777C41.9593 55.3791 42.0197 55.3837 42.0819 55.3937C43.246 55.3247 44.6878 54.7238 45.2433 53.6601C47.195 49.4899 44.2705 45.3683 39.5943 46.7622C36.9857 47.5328 34.3836 49.0259 31.8382 50.4864C30.4789 51.2663 29.1357 52.037 27.8164 52.6833C25.6728 53.7639 23.563 54.8339 21.4531 55.9039C19.3433 56.9739 17.2335 58.0439 15.0899 59.1245C14.5104 59.4226 13.9168 59.7685 13.3143 60.1201L13.3085 60.1233L13.3061 60.1247C12.96 60.3266 12.6109 60.5302 12.2597 60.7275Z" fill="#0C0D1F"/>
</svg>
