<svg width="103" height="60" viewBox="0 0 103 60" fill="none" xmlns="http://www.w3.org/2000/svg">
<path d="M68.4392 31.503C67.0329 36.0706 65.3121 41.6596 66.5764 45.0057C66.9343 46.1532 64.1173 47.5914 63.5684 46.7834C62.3304 43.5233 63.6211 39.3969 64.7783 35.6968C65.1751 34.4282 65.5562 33.2097 65.8144 32.0934C66.1329 30.6579 66.4542 29.2309 66.7743 27.8088L66.7836 27.7675C67.7006 23.6943 68.6087 19.6605 69.4212 15.58C69.6705 14.2511 69.8228 12.8367 69.9772 11.4025C70.2717 8.6671 70.574 5.85993 71.5713 3.43804C71.9534 2.7593 73.7041 1.23396 74.4281 2.12729C74.5353 2.23345 74.5989 2.31837 74.6624 2.40325C74.726 2.48831 74.7901 2.57397 74.8974 2.68036C75.2702 3.09761 74.6391 3.82796 73.8703 4.26193C73.4385 5.97936 73.2373 7.88098 73.0422 9.72636C72.8858 11.2049 72.7333 12.6473 72.4689 13.9299C71.8499 17.2299 71.135 20.4832 70.4113 23.7761L70.4098 23.7834L70.4067 23.7975L70.403 23.8145C70.1519 24.9569 69.8997 26.104 69.6503 27.2596C69.3758 28.4608 68.9262 29.9211 68.4392 31.503Z" fill="#0C0D1F"/>
<path d="M14.0331 48.6798C14.4634 51.5567 14.8934 54.4312 15.5622 57.2806C15.8406 58.173 12.3832 59.9509 12.1445 58.6264C11.5398 55.8376 11.0901 53.0611 10.6426 50.2983L10.6424 50.2966L10.6422 50.2955C9.91251 45.7901 9.18882 41.3215 7.80857 36.8964L1.20733 15.733C0.849482 14.5856 4.18765 12.9847 4.46601 13.8772L11.624 36.8254C12.8456 40.7419 13.4397 44.7132 14.0331 48.6798Z" fill="#0C0D1F"/>
<path d="M39.804 33.6314C40.2417 36.1529 40.6793 38.6744 40.958 41.2454C40.9886 41.6665 41.0134 42.0893 41.0382 42.5132C41.1425 44.2925 41.2478 46.0891 41.7938 47.8395C42.0721 48.732 45.5692 47.0816 45.0523 45.9838C44.426 44.3762 44.3702 42.5907 44.3158 40.8561C44.2943 40.1683 44.273 39.4877 44.2164 38.8301C44.0574 37.7623 43.8886 36.6626 43.7198 35.5629C43.5504 34.4598 43.381 33.3567 43.2216 32.2856C42.9829 30.9611 39.6449 32.5619 39.804 33.6314Z" fill="#0C0D1F"/>
<path d="M94.7799 44.4973C92.4413 48.0246 90.2678 51.5005 88.299 55.0524C87.838 55.8956 84.124 57.3338 84.8352 56.1327C86.9293 52.4019 89.1882 48.6196 91.6916 45.0409C92.2726 44.162 92.8226 43.2639 93.3734 42.3644C94.9212 39.837 96.4754 37.299 98.741 35.1479C99.1563 34.7386 101.267 33.3809 101.71 34.2219C101.75 34.3493 101.821 34.4321 101.892 34.5149C101.963 34.5976 102.034 34.6804 102.074 34.8079C102.528 35.4514 100.995 36.5774 99.8153 36.8749C98.7239 38.2682 97.7668 39.8109 96.8184 41.3397C96.1493 42.4183 95.4845 43.4899 94.7799 44.4973Z" fill="#0C0D1F"/>
</svg>
