<svg width="363" height="321" viewBox="0 0 363 321" fill="none" xmlns="http://www.w3.org/2000/svg">
<path fill-rule="evenodd" clip-rule="evenodd" d="M79.0238 58.3267C71.8299 57.3575 63.1835 58.5443 57.748 63.0056C57.285 63.0853 56.8786 63.2431 56.6713 63.4678C55.9022 63.5132 55.2053 63.6946 54.8602 64.0319C51.6289 66.9834 52.0312 73.3675 52.3072 77.7477C52.3342 78.1771 52.36 78.5871 52.3812 78.9728C52.7564 86.1165 55.6682 92.8289 60.4372 98.1811C70.5437 109.468 83.4477 103.226 91.5066 93.1864C100.21 82.1752 99.154 64.545 84.3702 59.5374C83.7613 59.3337 83.1255 59.1486 82.4675 58.9832C82.1001 58.6912 81.705 58.4392 81.2789 58.2349C80.7311 57.9528 79.7299 58.0353 79.0238 58.3267ZM57.3641 74.9966C57.4862 79.5398 58.3805 84.3023 59.195 86.5365C60.5332 90.1217 62.6752 93.8313 65.1707 96.8541C65.9055 97.9565 66.9313 98.7745 67.9572 99.5924L68.022 99.5903C67.1707 97.5831 66.4503 95.5339 65.7299 93.4847L65.7293 93.4829L65.7278 93.4791C64.8568 91.0012 63.9852 88.5221 62.8821 86.1186C61.1482 82.3774 59.329 78.6637 57.3641 74.9966ZM57.9489 69.4115C58.045 69.4815 58.1259 69.5626 58.1877 69.6552C61.1756 74.814 63.8169 80.084 66.2849 85.4095C67.3889 87.8153 68.2609 90.2955 69.1328 92.7758C69.9242 95.027 70.7156 97.2781 71.6805 99.4736L74.0083 99.3993C73.593 98.344 72.9687 97.2436 72.3683 96.1851C71.8221 95.2223 71.2957 94.2943 70.9642 93.4666C70.3227 92.0557 69.7383 90.6741 69.1539 89.2926L69.1465 89.2764L69.1445 89.2718C68.5569 87.883 67.9692 86.4943 67.3245 85.0761C64.7543 79.403 61.8941 73.9425 58.9456 68.4408C58.9071 68.5212 58.8693 68.6022 58.8321 68.684C58.699 69.0002 58.3745 69.242 57.9489 69.4115ZM79.8709 99.2122L77.7112 99.2811C77.0444 96.8132 75.5634 94.0505 74.1899 91.4884C73.3292 89.8827 72.5107 88.3559 71.9613 87.0298C68.7134 79.6262 64.8784 72.4109 61.0399 65.3458C61.8372 64.4827 62.743 63.7488 63.731 63.1381C70.775 72.4871 77.717 84.6872 79.7472 96.1731C79.7104 96.2929 79.7198 96.4233 79.7874 96.5627L79.9538 97.0829C80.1843 97.5315 80.979 97.7596 81.7555 97.7549C81.1141 98.3952 80.464 98.9466 79.8709 99.2122ZM66.5664 61.788C73.8506 71.3733 81.1772 84.0722 83.3481 96.0316C83.7059 95.6305 84.0386 95.2602 84.3305 94.9676C84.2758 94.8995 84.2192 94.8248 84.1579 94.7416L84.098 94.6599L83.9991 94.5237L83.9965 94.5201C83.9484 94.4537 83.897 94.3827 83.8414 94.3067C83.506 93.8034 84.0444 93.4183 84.7934 93.2367C82.8472 81.8492 77.1468 70.9262 71.1745 61.2845C71.0657 61.1214 71.0489 60.9706 71.1012 60.8352C69.5306 60.9663 68.0002 61.2796 66.5664 61.788ZM89.2289 88.1568C88.809 88.9621 88.3503 89.7468 87.859 90.506C85.578 80.1408 80.4426 70.2028 75.0164 61.2932C75.0077 61.2128 74.9758 61.1282 74.917 61.04C74.8844 61.0232 74.8552 61.0052 74.8291 60.9863L74.7443 60.8478C76.9845 61.0433 79.2187 61.5771 81.2915 62.4136C82.725 64.8464 83.6432 68.3616 84.3511 71.0715L84.3516 71.0732C84.613 72.0743 84.8458 72.9654 85.0652 73.6514C85.3229 74.4566 85.6721 75.3727 86.0466 76.3547L86.0496 76.3626L86.052 76.3687L86.0526 76.3701L86.0541 76.3741C87.3721 79.8286 88.9997 84.0944 88.0681 87.2163C87.9132 87.7594 88.4956 88.066 89.2289 88.1568ZM86.2712 65.2917C86.6482 66.3775 86.968 67.4681 87.2648 68.48C87.4527 69.1207 87.6313 69.7298 87.8093 70.2862C88.1353 71.3053 88.5662 72.4539 89.026 73.6794C89.969 76.1932 91.0334 79.0307 91.5636 81.738C92.3672 77.8731 92.1041 73.849 90.2281 70.084C89.309 68.2393 87.9385 66.6302 86.2712 65.2917Z" fill="#0C0D1F"/>
<path fill-rule="evenodd" clip-rule="evenodd" d="M94.7477 125.409C95.0806 122.608 96.8454 120.138 99.36 118.079C99.4322 117.768 99.7875 117.534 100.246 117.393C106.003 113.167 114.869 110.888 120.056 111.365C126.55 111.959 133.932 115.326 138.015 120.325C143.63 127.126 139.722 136.408 136.071 143.505C130.07 154.605 116.938 165.508 104.552 157.246C97.7595 152.734 95.0209 145.966 94.8258 138.191C94.8075 137.198 94.7479 136.166 94.6872 135.118C94.516 132.157 94.3372 129.065 95.0619 126.344L94.9696 126.102C94.9628 126.081 94.957 126.06 94.9521 126.039C94.7984 125.863 94.7213 125.652 94.7477 125.409ZM99.9251 129.674C100.231 127.594 100.745 125.718 101.513 124.315C102.509 126.841 103.584 129.341 104.658 131.842C105.421 133.618 106.185 135.394 106.92 137.18C106.948 137.247 106.984 137.33 107.028 137.429C107.064 137.51 107.104 137.601 107.149 137.701L107.244 137.913L107.42 138.303C109.041 141.901 113.517 151.834 112.948 154.914C110.644 154.932 109.268 154.868 108.139 154.381C108.703 154.17 109.069 153.82 108.856 153.381C105.932 147.736 103.866 141.493 101.813 135.29C101.191 133.409 100.569 131.53 99.9251 129.674ZM99.8811 140.401C100.875 143.32 101.916 146.214 103.094 149.016C102.318 147.947 101.536 146.803 101.064 145.748C100.562 144.484 100.147 142.586 99.8811 140.401ZM108.443 132.633C106.694 128.282 104.94 123.922 103.385 119.456C104.495 118.502 105.834 117.702 107.305 117.049C107.117 117.206 107.044 117.396 107.152 117.607C112.85 128.502 117.232 141.954 119.26 154.178C119.09 154.324 118.996 154.498 119.021 154.693C118.256 154.768 117.355 154.808 116.249 154.846C114.286 147.161 111.37 139.91 108.443 132.633ZM108.203 116.674C109.13 116.479 110.352 116.596 110.666 117.245C116.407 127.857 120.677 141.328 122.753 153.382C123.448 152.841 124.161 152.085 125.088 151.019C124.636 150.624 124.783 150.28 125.204 150.04C124.844 146.632 123.626 143.144 122.416 139.677C121.662 137.518 120.91 135.366 120.371 133.248C119.175 128.613 117.687 124.073 116.198 119.533C115.708 118.037 115.217 116.54 114.737 115.041C112.515 115.331 110.257 115.869 108.203 116.674ZM130.956 143.043C130.163 144.584 129.209 145.996 128.154 147.361C127.593 144.614 126.656 141.936 125.727 139.278C124.986 137.162 124.251 135.058 123.712 132.941C122.516 128.306 121.027 123.766 119.538 119.225L119.535 119.214C119.051 117.74 118.568 116.266 118.095 114.788C118.156 114.787 118.217 114.786 118.277 114.786L118.413 114.784L118.554 114.784C118.601 114.904 118.734 115.028 118.976 115.153C121.865 116.641 123.235 120.304 124.463 123.585C124.887 124.72 125.294 125.809 125.742 126.746C126.007 127.281 126.272 127.811 126.535 128.336C128.744 132.748 130.818 136.89 131.582 141.782C131.379 142.205 131.17 142.626 130.956 143.043ZM123.556 115.326C125.599 117.271 126.674 119.986 127.727 122.648C127.954 123.224 128.181 123.797 128.417 124.359C129.05 125.787 129.726 127.191 130.4 128.59L130.401 128.593C131.32 130.5 132.234 132.398 133.029 134.336C133.069 134.256 133.14 134.173 133.249 134.088C133.539 133.803 131.268 126.702 131.044 126.003L131.043 126.001C130.269 123.089 129.496 120.177 128.103 117.355C127.162 116.801 126.162 116.302 125.123 115.857C124.66 115.651 124.134 115.474 123.556 115.326ZM133.234 134.845C133.445 134.986 133.773 135.094 134.142 135.157C134.029 135.541 133.91 135.923 133.785 136.304C133.611 135.814 133.427 135.328 133.234 134.845ZM133.531 122.244C134.839 124.203 135.55 126.493 135.396 129.133C135.09 128.062 134.809 126.987 134.529 125.915C134.207 124.684 133.887 123.457 133.531 122.244Z" fill="#0C0D1F"/>
<path fill-rule="evenodd" clip-rule="evenodd" d="M100.242 44.8263C82.5174 34.2803 64.0573 25.1817 45.1939 16.4605C45.5298 15.7644 44.339 15.4196 43.2515 15.5645C42.3369 15.1434 41.4213 14.7231 40.5048 14.3035L39.578 13.8796C38.1891 13.2167 36.8041 12.5463 35.4197 11.8763L35.4149 11.8739L35.4119 11.8729L35.4095 11.8718C29.1567 8.84524 22.9179 5.82548 16.4006 3.53542C15.8011 3.3277 15.1549 3.08268 14.4759 2.82523C11.261 1.6062 7.31198 0.108806 4.11914 0.975012C1.11826 1.7463 0.758026 3.00878 0.897094 5.83159C1.01511 8.07851 1.97238 10.5858 2.89938 13.0136C3.44583 14.4449 3.98212 15.8496 4.32928 17.1561C5.10586 19.5832 5.72845 22.0597 6.35104 24.5363C6.66229 25.7746 6.97357 27.0129 7.30411 28.245C13.5853 51.6123 22.1004 74.1707 31.9762 96.2003C31.2892 96.3424 30.71 96.6308 30.476 97.0855C18.6897 115.776 8.18593 137.878 8.72273 160.454C8.87996 170.862 13.1451 182.142 16.8262 191.877L17.0857 192.563C20.9891 202.972 25.9806 213.796 32.0255 223.136C32.7579 224.249 33.6153 225.786 34.5832 227.521L34.5848 227.524C39.5167 236.362 47.3151 250.338 56.0494 239.708C61.5972 232.883 66.2757 224.266 70.6044 216.292L70.6133 216.276L71.4483 214.739C71.7539 214.177 72.0578 213.619 72.3603 213.067C76.3932 205.647 79.8525 198.093 82.5259 190.236L83.1901 191.492L83.1908 191.494C86.9684 198.641 90.7444 205.785 94.9749 212.695C95.3121 213.302 96.2575 213.554 97.2525 213.549C99.7351 217.844 101.588 220.318 106.758 218.474C113.771 215.964 119.817 209.319 125.499 203.075L125.5 203.073L125.502 203.072L125.503 203.07L125.514 203.058C126.693 201.763 127.856 200.485 129.008 199.265C130.401 203.724 132.434 207.927 134.46 212.115C135.335 213.925 136.21 215.733 137.031 217.558C137.427 218.401 137.85 219.504 138.321 220.731L138.323 220.734L138.323 220.736C139.987 225.071 142.241 230.942 145.946 232.286C148.637 233.286 150.908 231.568 153.006 229.98C153.275 229.777 153.541 229.576 153.804 229.383C157.287 226.832 160.641 224.179 163.995 221.526C167.349 218.874 170.703 216.221 174.185 213.67C176.828 211.735 179.465 209.784 182.107 207.83C188.284 203.26 194.484 198.674 200.824 194.231C201.401 193.839 202.216 193.38 203.137 192.861C206.475 190.979 211.213 188.31 211.114 185.195C210.911 180.845 201.819 175.575 197.469 173.053L197.464 173.05L197.461 173.048C196.917 172.733 196.448 172.461 196.08 172.239C188.837 167.797 182.043 163.027 175.592 157.598C182.578 151.19 189.558 144.993 197.843 140.133C199.375 139.182 198.143 138.428 196.601 138.161C196.536 132.996 192.249 128.078 188.494 123.77C187.312 122.413 186.183 121.117 185.254 119.893C183.709 117.889 182.132 115.924 180.529 113.989C180.85 113.985 181.153 113.945 181.414 113.861C184.428 112.994 187.671 112.679 190.912 112.364C193.878 112.076 196.842 111.789 199.627 111.078C203.321 110.084 207.015 109.091 210.826 107.868C212.603 107.298 214.436 106.824 216.274 106.348C221.604 104.967 226.979 103.575 231.174 99.8132C231.465 99.5287 231.527 99.1264 231.416 98.7796C227.157 87.5408 216.549 78.4821 207.233 70.5264L207.231 70.5245L207.22 70.5152L207.215 70.5108C205.8 69.3023 204.415 68.1192 203.086 66.9578L202.394 66.3636C192.064 57.4921 181.175 48.1401 169.039 41.7485C158.746 36.4476 147.103 33.4915 135.646 34.1073C124.939 34.6586 115.438 38.9826 105.938 43.3067C104.9 43.7788 103.863 44.251 102.824 44.7183C102.013 44.5537 101.029 44.6175 100.242 44.8263ZM191.182 139.019C191.281 134.373 187.384 129.812 184.006 125.857C182.906 124.569 181.861 123.346 181.027 122.205C176.382 116.048 171.447 110.176 166.22 104.588C155.601 92.8924 144.344 81.5924 132.152 71.5483C108.446 52.389 81.8584 38.5509 54.8062 25.0528C51.1082 23.1918 47.4101 21.3308 43.6993 19.4947C42.1133 22.588 40.3819 25.5544 38.393 28.3485C38.0356 29.1367 37.5805 30.0021 37.0161 30.9497C35.812 32.9053 33.6283 35.7119 31.1815 36.4463C29.4399 37.8746 27.542 39.112 25.6511 40.3448C22.8973 42.1402 20.1585 43.9258 17.9392 46.2773C26.7191 73.6503 38.5894 100.003 51.6531 125.658C59.0155 140.31 66.7936 153.872 75.4311 167.733C78.0339 171.886 80.4567 176.13 82.7997 180.412C84.1205 180.463 85.3152 180.995 84.9835 182.065C84.9418 182.224 84.8997 182.384 84.8573 182.544C84.8182 182.691 84.7788 182.838 84.7391 182.985L84.6697 183.241L84.6197 183.424L84.5563 183.654C85.802 185.973 87.0318 188.3 88.2615 190.626L88.2632 190.63C91.9626 197.629 95.6606 204.626 99.7853 211.402C100.796 211.411 101.767 211.693 102.113 212.317C104.829 217.076 106.335 215.676 109.893 212.371L110.25 212.04C110.404 211.897 110.561 211.751 110.723 211.603C110.902 211.438 111.086 211.27 111.275 211.099C113.108 209.364 114.856 207.513 116.605 205.662C118.352 203.811 120.1 201.961 121.933 200.226C123.894 198.337 125.898 196.48 127.93 194.646C128.025 194.32 128.333 194.073 128.755 193.904C132.628 190.432 136.592 187.037 140.534 183.663L140.539 183.658L140.57 183.632C142.763 181.754 144.95 179.882 147.109 178.005C151.039 174.459 154.909 170.765 158.789 167.06C169.184 157.136 179.655 147.139 191.569 139.727C191.324 139.544 191.179 139.308 191.182 139.019ZM23.7387 39.0315L23.5227 39.171C23.5448 39.1307 23.5661 39.0903 23.5864 39.0499L23.6402 39.0436C23.6731 39.0397 23.7059 39.0357 23.7387 39.0315ZM7.77377 4.80554C7.93216 4.7413 8.11374 4.67446 8.32126 4.60293C8.22403 4.67865 8.13434 4.75905 8.05197 4.84383C7.95956 4.82983 7.86679 4.81708 7.77377 4.80554ZM38.7793 17.0812C39.4842 17.4236 40.1884 17.7673 40.8921 18.1121C40.5952 18.6924 40.2942 19.2695 39.9885 19.8428C39.9659 18.9048 39.5832 17.9807 38.7113 17.1122C38.7345 17.1021 38.7572 17.0917 38.7793 17.0812ZM36.3121 26.0925C36.0777 26.4496 35.8399 26.8041 35.5985 27.1559C35.7001 26.852 35.7946 26.5504 35.8818 26.2522C36.0402 26.2063 36.186 26.1526 36.3121 26.0925ZM12.0486 10.6885L12.0299 10.6618C11.9624 10.4964 11.8971 10.3296 11.8342 10.1612C11.6139 9.60346 11.4472 9.12719 11.3293 8.72315C11.4263 8.76497 11.5239 8.80684 11.6222 8.84899C12.0064 9.01372 12.4018 9.18323 12.8061 9.37284C13.0535 9.90122 13.3174 10.4177 13.5957 10.924C13.382 10.8226 12.7188 10.6979 12.0486 10.6885ZM22.2842 11.5837C22.873 11.7301 23.4669 11.861 24.067 11.9726C24.2415 12.0224 24.5925 12.0302 24.985 11.9908C25.2112 12.1499 25.4376 12.3105 25.6639 12.4728L25.7934 12.5659L25.6366 12.6161C25.112 12.5852 24.446 12.6138 23.968 12.7609C23.4146 12.3525 22.8545 11.9581 22.2842 11.5837ZM32.4668 28.4683L32.4781 28.4742L32.4297 28.6188C32.4154 28.5834 32.4021 28.5479 32.39 28.5122L32.4668 28.4683ZM31.9955 28.7317L32.3823 28.759C32.0011 29.8808 31.6649 30.7409 31.4924 31.0009L31.4177 31.1275C31.3467 31.2478 31.2695 31.3787 31.1862 31.5181C31.1064 31.6519 31.0209 31.7935 30.9303 31.9409C30.8425 31.5483 30.7809 31.0633 30.7508 30.4741C30.75 30.4671 30.7493 30.4597 30.7488 30.4518C30.7484 30.4461 30.7481 30.4401 30.7478 30.434C30.7469 30.4119 30.7468 30.3869 30.7476 30.359L30.7587 30.34C31.0159 30.213 31.2653 30.0503 31.5061 29.8495C31.6793 29.794 31.7417 29.3917 31.6862 29.2183C31.6363 29.15 31.5862 29.0819 31.5359 29.0139L31.5692 28.9574C31.7077 28.8861 31.85 28.8109 31.9955 28.7317ZM19.0771 27.9403C18.9592 28.2159 18.8567 28.5109 18.7704 28.8209C18.5228 28.1016 18.327 27.3671 18.187 26.624L18.3098 26.8179C18.4322 26.9853 18.6449 27.1052 18.907 27.1827C18.9681 27.4321 19.0248 27.6851 19.0771 27.9403ZM133.271 195.06C143.97 185.512 154.724 176.138 165.478 166.763L165.481 166.761C167.861 164.686 170.175 162.576 172.467 160.47C177.002 164.276 181.765 167.84 186.717 171.037C188.001 171.846 189.39 172.634 190.811 173.44C194.953 175.789 199.367 178.292 202.236 181.926C203.782 182.577 204.343 183.735 204.267 185.289C205.113 186.738 204.642 187.654 203.027 187.98C202.128 189.164 200.147 190.437 198.43 191.542C197.579 192.088 196.793 192.594 196.236 193.026C193.536 195.038 190.823 197.008 188.111 198.977C185.397 200.946 182.684 202.916 179.985 204.928C173.949 209.349 167.74 213.826 161.531 218.302C160.731 218.816 158.998 220.32 156.982 222.069C153.854 224.782 150.048 228.084 148.008 229.182C148.134 227.784 145.355 223.873 145.355 223.873C144.395 222.047 143.56 220.098 142.734 218.172L142.733 218.169L142.732 218.167L142.729 218.16C142.299 217.157 141.872 216.161 141.431 215.191C140.977 214.27 140.517 213.355 140.058 212.442C137.338 207.032 134.65 201.686 133.368 195.643C133.409 195.464 133.382 195.269 133.271 195.06ZM14.5848 151.31C16.2152 133.241 24.3307 115.66 33.7932 100.214C37.5842 108.51 41.5618 116.733 45.6788 124.898C53.3809 140.014 61.3808 154.27 70.358 168.595C73.5105 173.626 76.399 178.788 79.2013 183.992C74.3715 200.589 65.9652 215.476 56.5678 229.984C56.3067 230.408 56.014 230.943 55.689 231.537C53.8232 234.947 50.8955 240.298 46.8106 237.701C45.7265 237.048 44.3007 234.048 43.1436 231.614C42.5326 230.328 41.9965 229.2 41.6252 228.659C36.7103 221.06 32.4261 213.64 28.6685 205.479L28.4927 205.092C20.8081 188.192 12.7579 170.488 14.5848 151.31ZM104.623 47.472C111.688 51.804 118.63 56.3835 125.428 61.2796C140.829 72.3973 154.54 85.3954 167.606 99.3648C171.357 103.421 175.043 107.499 178.61 111.702L178.62 111.698C182.604 110.421 186.727 109.918 190.857 109.415C194.451 108.977 198.049 108.539 201.567 107.588C203.549 107.02 205.668 106.504 207.819 105.98L207.82 105.98L207.822 105.98C211.746 105.024 215.779 104.042 219.288 102.669C225.532 100.093 226.197 97.395 222.689 92.4029C220.09 88.4576 216.562 85.1926 213.089 82.1008C207.572 76.7976 202.054 71.4943 196.301 66.6489C196.013 66.4069 195.726 66.1641 195.437 65.9207C194.974 65.5302 194.51 65.1382 194.045 64.7451L194.031 64.733C183.183 55.5673 171.624 45.7997 158.352 40.5884C138.957 32.9075 122.418 39.4869 104.623 47.472Z" fill="#0C0D1F"/>
<path fill-rule="evenodd" clip-rule="evenodd" d="M180.238 224.464C182.923 220.099 187.886 212.027 193.145 211.591C205.264 202.988 227.113 216.287 235.204 225.259C236.057 226.132 233.804 226.855 233.458 226.966C231.781 227.365 230.869 227.316 229.612 227.25C229.14 227.225 228.619 227.198 227.99 227.19C228.738 227.141 218.21 227.077 217.684 227.819C216.194 230.102 221.802 237.873 225.564 243.088C226.982 245.053 228.138 246.655 228.554 247.463C231.252 252.714 232.133 257.943 233.09 263.617L233.09 263.619C233.21 264.329 233.331 265.047 233.456 265.771C233.584 266.599 233.865 267.803 234.192 269.202C235.231 273.655 236.731 280.08 235.212 282.604C232.41 287.344 225.326 282.468 221.585 279.893C220.858 279.393 220.258 278.98 219.839 278.741C218.552 277.986 217.238 277.231 215.913 276.469C210.949 273.615 205.824 270.669 201.278 267.299C197.249 264.437 194.163 260.927 191.019 257.27C190.269 259.301 190.365 261.654 190.458 263.952C190.586 267.085 190.71 270.118 188.678 272.104C187.805 272.958 185.56 273.105 184.416 272.515C179.384 269.924 176.541 262.233 175.453 257.039C173.275 246.65 174.403 234.054 180.036 224.792L180.238 224.464ZM207.364 224.821C205.831 221.355 202.186 215.534 197.9 212.917C205.775 207.619 222.514 218.525 229.202 224.844C227.736 224.898 226.212 224.823 224.676 224.747C220.482 224.541 216.199 224.33 212.749 226.726C212.68 226.793 212.592 226.866 212.499 226.944C212.199 227.194 211.847 227.488 211.931 227.753C212.485 232.663 215.881 237.263 219.234 241.806C221.55 244.945 223.846 248.057 225.172 251.224C227.395 256.554 228.244 262.948 229.012 268.725L229.012 268.73C229.094 269.348 229.175 269.958 229.257 270.559C229.311 270.929 229.415 271.473 229.541 272.13C230.022 274.644 230.822 278.82 230.344 281.272C226.277 279.52 222.299 276.609 218.486 273.818C216.368 272.268 214.301 270.756 212.298 269.499C204.646 264.689 199.696 259.968 193.562 253.334C192.37 251.996 189.778 252.253 188.558 253.218C186.111 255.077 185.78 257.263 185.338 260.176L185.3 260.431C185.282 260.546 185.264 260.662 185.246 260.78C185.171 261.424 185.181 262.439 185.192 263.594C185.206 264.953 185.221 266.505 185.101 267.869C180.124 261.562 180.032 249.05 180.399 242.645C180.679 237.663 181.959 233.091 183.99 228.889C188.094 241.086 208.552 256.068 215.323 247.31C215.614 247.026 215.732 246.797 215.566 246.277C213.585 241.82 209.741 238.544 205.949 235.312C202.707 232.549 199.504 229.818 197.536 226.411C200.194 226.82 202.815 226.956 205.617 226.528C206.366 226.479 207.87 225.806 207.364 224.821ZM194.149 215.263C192.598 216.763 191.138 218.329 189.789 219.962C190.085 220.259 190.129 220.644 189.745 221.105C182.684 229.487 207.36 249.291 209.876 245.808C210.567 244.898 205.974 240.423 201.175 235.749C196.645 231.336 191.932 226.744 191.312 224.808C190.702 222.901 194.154 222.941 195.186 223.183C195.289 223.199 195.483 223.232 195.747 223.276L195.749 223.277L195.75 223.277L195.756 223.278C196.963 223.481 199.616 223.928 201.74 224.155C200.073 220.852 197.328 217.003 194.149 215.263Z" fill="#0C0D1F"/>
<path d="M241.339 188.309C258.308 192.565 271.884 206.532 284.104 219.103C286.095 221.151 288.049 223.161 289.977 225.087C306.238 241.281 322.147 258.162 337.417 275.439C337.593 275.646 337.805 275.894 338.05 276.181C344.231 283.414 371.416 315.228 360.017 319.804C358.978 320.137 356.732 320.284 355.997 319.181C355.828 318.949 355.715 318.746 355.602 318.543C355.49 318.341 355.377 318.138 355.207 317.905C354.637 316.836 356.226 316.159 357.794 316.129C357.424 308.77 334.68 279.476 331.713 276.122C317.24 259.545 302.011 243.593 286.547 228.099C284.529 226.067 282.456 223.903 280.323 221.676L280.322 221.675C268.451 209.284 254.738 194.968 238.547 190.925C235.338 189.852 239.447 187.769 241.339 188.309Z" fill="#0C0D1F"/>
<path d="M283.505 264.739C277.85 259.631 272.215 254.541 266.79 249.346C265.48 248.237 260.463 249.272 261.995 251.075C267.005 255.816 272.18 260.482 277.377 265.168C293.218 279.452 309.256 293.914 321.437 311.211C321.415 311.363 321.436 311.526 321.51 311.7C322.237 313.378 323.041 313.503 324.823 313.696C325.453 313.876 329.085 313.285 328.066 311.891C316.002 294.093 299.671 279.341 283.505 264.739Z" fill="#0C0D1F"/>
</svg>
