<svg width="104" height="60" viewBox="0 0 104 60" fill="none" xmlns="http://www.w3.org/2000/svg">
<path d="M68.567 31.5033C67.1607 36.0708 65.44 41.6599 66.7042 45.006C67.0621 46.1534 64.2451 47.5916 63.6962 46.7836C62.4583 43.5235 63.7489 39.3972 64.9061 35.697C65.3029 34.4284 65.684 33.2099 65.9422 32.0936C66.2607 30.6582 66.582 29.2312 66.9021 27.809L66.9114 27.7678C67.8284 23.6946 68.7366 19.6607 69.549 15.5802C69.7983 14.2514 69.9506 12.8369 70.105 11.4027C70.3995 8.66734 70.7018 5.86018 71.6991 3.43828C72.0812 2.75954 73.8319 1.2342 74.5559 2.12753C74.6631 2.23369 74.7267 2.31861 74.7902 2.40349C74.8539 2.48855 74.9179 2.57421 75.0252 2.6806C75.398 3.09785 74.7669 3.8282 73.9981 4.26218C73.5663 5.9796 73.3651 7.88122 73.17 9.72661C73.0137 11.2051 72.8611 12.6475 72.5968 13.9301C71.9777 17.2302 71.2628 20.4835 70.5391 23.7764L70.5376 23.7836L70.5345 23.7977L70.5308 23.8148C70.2797 24.9571 70.0275 26.1043 69.7781 27.2599C69.5036 28.4611 69.0541 29.9214 68.567 31.5033Z" fill="white"/>
<path d="M14.1609 48.6801C14.5912 51.5569 15.0212 54.4314 15.69 57.2809C15.9684 58.1733 12.511 59.9512 12.2723 58.6267C11.6676 55.8379 11.2179 53.0613 10.7704 50.2986L10.7702 50.2968L10.77 50.2957C10.0403 45.7903 9.31662 41.3217 7.93638 36.8966L1.33514 15.7332C0.977289 14.5858 4.31546 12.985 4.59382 13.8774L11.7518 36.8257C12.9734 40.7422 13.5675 44.7134 14.1609 48.6801Z" fill="white"/>
<path d="M39.9318 33.6317C40.3695 36.1531 40.8071 38.6746 41.0858 41.2457C41.1164 41.6667 41.1412 42.0896 41.166 42.5134C41.2703 44.2928 41.3756 46.0894 41.9216 47.8398C42.2 48.7322 45.697 47.0819 45.1802 45.984C44.5539 44.3765 44.498 42.591 44.4436 40.8563C44.4221 40.1685 44.4008 39.488 44.3442 38.8304C44.1852 37.7625 44.0164 36.6628 43.8476 35.5631C43.6782 34.4601 43.5088 33.357 43.3494 32.2859C43.1107 30.9614 39.7727 32.5622 39.9318 33.6317Z" fill="white"/>
<path d="M94.9077 44.4976C92.5691 48.0249 90.3956 51.5007 88.4268 55.0526C87.9658 55.8958 84.2518 57.3341 84.963 56.133C87.0571 52.4022 89.316 48.6199 91.8194 45.0411C92.4004 44.1623 92.9504 43.2641 93.5012 42.3647C95.049 39.8373 96.6032 37.2993 98.8688 35.1481C99.2841 34.7388 101.394 33.3811 101.838 34.2221C101.877 34.3496 101.948 34.4323 102.02 34.5151C102.091 34.5979 102.162 34.6806 102.201 34.8081C102.656 35.4516 101.122 36.5776 99.9431 36.8751C98.8517 38.2684 97.8946 39.8111 96.9462 41.34C96.2771 42.4185 95.6123 43.4902 94.9077 44.4976Z" fill="white"/>
</svg>
