<svg width="113" height="89" viewBox="0 0 113 89" fill="none" xmlns="http://www.w3.org/2000/svg">
<path d="M50.2737 68.2537C50.2737 73.6067 48.1007 78.2905 43.7548 82.3052C39.4923 86.3199 34.4361 88.3272 28.5858 88.3272C19.3925 88.3272 12.3303 85.2745 7.39936 79.1686C2.46842 73.0631 0.00292969 64.6153 0.00292969 53.8259C0.00292969 43.7892 4.22348 33.6686 12.6646 23.4646C21.1894 13.2606 31.4273 5.52394 43.3788 0.254639L48.8945 9.16228C39.4506 13.7624 32.0542 19.1154 26.7054 25.2211C21.3565 31.3267 18.2642 38.729 17.4284 47.4276H24.4488C29.6304 47.4276 33.8509 48.0129 37.1105 49.1839C40.3701 50.3548 43.0025 51.9859 45.0083 54.0767C46.9307 56.0841 48.2679 58.3005 49.0199 60.7261C49.8557 63.1518 50.2737 65.6608 50.2737 68.2537ZM112.078 68.2537C112.078 73.6067 109.905 78.2905 105.559 82.3052C101.297 86.3199 96.2403 88.3272 90.39 88.3272C81.1967 88.3272 74.1346 85.2745 69.2035 79.1686C64.2724 73.0631 61.8071 64.6153 61.8071 53.8259C61.8071 43.7892 66.0276 33.6686 74.4689 23.4646C82.9934 13.2606 93.2316 5.52394 105.183 0.254639L110.699 9.16228C101.255 13.7624 93.8584 19.1154 88.5096 25.2211C83.1608 31.3267 80.0683 38.729 79.2326 47.4276H86.2529C91.4346 47.4276 95.6551 48.0129 98.9147 49.1839C102.174 50.3548 104.807 51.9859 106.813 54.0767C108.735 56.0841 110.072 58.3005 110.824 60.7261C111.66 63.1518 112.078 65.6608 112.078 68.2537Z" fill="#262735"/>
</svg>
